<svg width="220" height="220" viewBox="0 0 220 220" fill="none" xmlns="http://www.w3.org/2000/svg">
    <path d="M161.562 20.625C157.917 20.6291 154.422 22.0791 151.844 24.6568C149.267 27.2345 147.817 30.7295 147.812 34.375V36.6639C133.133 52.2019 113.27 62.8414 98.9905 69.0907C81.4529 76.7654 65.3146 80.7812 58.4375 80.7812H17.1875C13.0863 80.7858 9.15443 82.417 6.25447 85.317C3.3545 88.2169 1.7233 92.1488 1.71875 96.25V123.75C1.7233 127.851 3.3545 131.783 6.25447 134.683C9.15443 137.583 13.0863 139.214 17.1875 139.219H25.7812V175.312C25.7812 176.68 26.3245 177.992 27.2915 178.959C28.2585 179.926 29.57 180.469 30.9375 180.469H48.125C49.2749 180.469 50.3918 180.084 51.2982 179.377C52.2046 178.669 52.8485 177.679 53.1274 176.563L62.3876 139.524C70.4803 140.59 84.2394 144.456 98.9905 150.911C113.27 157.16 133.133 167.8 147.812 183.338V185.625C147.812 189.272 149.261 192.769 151.84 195.348C154.418 197.926 157.916 199.375 161.562 199.375C165.209 199.375 168.707 197.926 171.285 195.348C173.864 192.769 175.312 189.272 175.312 185.625V34.375C175.308 30.7295 173.858 27.2345 171.281 24.6568C168.703 22.0791 165.208 20.6291 161.562 20.625ZM53.2812 128.906H36.0938V91.0938H53.2812V128.906ZM12.0312 123.75V96.25C12.0327 94.8829 12.5764 93.5723 13.5431 92.6056C14.5098 91.639 15.8204 91.0952 17.1875 91.0938H25.7812V128.906H17.1875C15.8204 128.905 14.5098 128.361 13.5431 127.394C12.5764 126.428 12.0327 125.117 12.0312 123.75ZM44.0993 170.156H36.0938V139.219H51.8336L44.0993 170.156ZM63.5938 129.305V90.695C81.7175 88.2814 120.714 74.8567 147.812 50.9665V169.033C120.714 145.143 81.7175 131.719 63.5938 129.305ZM165 185.625C165 186.537 164.638 187.411 163.993 188.056C163.349 188.7 162.474 189.062 161.562 189.062C160.651 189.062 159.776 188.7 159.132 188.056C158.487 187.411 158.125 186.537 158.125 185.625V34.375C158.125 33.4633 158.487 32.589 159.132 31.9443C159.776 31.2997 160.651 30.9375 161.562 30.9375C162.474 30.9375 163.349 31.2997 163.993 31.9443C164.638 32.589 165 33.4633 165 34.375V185.625Z" fill="url(#paint0_linear)" />
    <path d="M213.125 104.844H195.938C194.57 104.844 193.258 105.387 192.291 106.354C191.324 107.321 190.781 108.632 190.781 110C190.781 111.368 191.324 112.679 192.291 113.646C193.258 114.613 194.57 115.156 195.938 115.156H213.125C214.493 115.156 215.804 114.613 216.771 113.646C217.738 112.679 218.281 111.368 218.281 110C218.281 108.632 217.738 107.321 216.771 106.354C215.804 105.387 214.493 104.844 213.125 104.844Z" fill="url(#paint1_linear)" />
    <path d="M187.454 77.9179C188.226 77.9178 188.989 77.7433 189.684 77.4074L205.176 69.9596C206.408 69.3671 207.355 68.3091 207.807 67.0186C208.26 65.7281 208.181 64.3107 207.588 63.0782C206.996 61.8457 205.938 60.8991 204.647 60.4467C203.357 59.9942 201.94 60.0729 200.707 60.6655L185.217 68.1137C184.163 68.6199 183.313 69.4691 182.805 70.5221C182.297 71.5752 182.163 72.7695 182.423 73.9093C182.683 75.049 183.323 76.0665 184.237 76.7949C185.152 77.5232 186.286 77.9192 187.455 77.9179H187.454Z" fill="url(#paint2_linear)" />
    <path d="M205.176 150.04L189.686 142.593C188.455 142.011 187.044 141.94 185.761 142.395C184.477 142.849 183.426 143.793 182.836 145.02C182.246 146.247 182.165 147.658 182.611 148.944C183.058 150.23 183.994 151.288 185.217 151.886L200.707 159.335C201.94 159.927 203.357 160.006 204.647 159.553C205.938 159.101 206.996 158.154 207.588 156.922C208.181 155.689 208.26 154.272 207.807 152.981C207.355 151.691 206.408 150.633 205.176 150.04Z" fill="url(#paint3_linear)" />
    <defs>
        <linearGradient id="paint0_linear" x1="1.71875" y1="191.167" x2="141.226" y2="183.429" gradientUnits="userSpaceOnUse">
            <stop offset="0.160824" stop-color="#9F2FFF" />
            <stop offset="1" stop-color="#0BB1D3" />
        </linearGradient>
        <linearGradient id="paint1_linear" x1="190.781" y1="114.683" x2="212.447" y2="111.383" gradientUnits="userSpaceOnUse">
            <stop offset="0.160824" stop-color="#9F2FFF" />
            <stop offset="1" stop-color="#0BB1D3" />
        </linearGradient>
        <linearGradient id="paint2_linear" x1="182.293" y1="77.1023" x2="202.952" y2="75.3881" gradientUnits="userSpaceOnUse">
            <stop offset="0.160824" stop-color="#9F2FFF" />
            <stop offset="1" stop-color="#0BB1D3" />
        </linearGradient>
        <linearGradient id="paint3_linear" x1="182.327" y1="159.029" x2="202.959" y2="157.318" gradientUnits="userSpaceOnUse">
            <stop offset="0.160824" stop-color="#9F2FFF" />
            <stop offset="1" stop-color="#0BB1D3" />
        </linearGradient>
    </defs>
</svg>
