<svg width="220" height="220" viewBox="0 0 220 220" fill="none" xmlns="http://www.w3.org/2000/svg">
    <g clip-path="url(#clip0)">
        <path d="M90.3887 195.029L89.7424 198.187L90.3652 195.026C88.6196 194.682 86.9243 195.818 86.5802 197.564C86.2361 199.311 87.3725 201.005 89.1197 201.349C89.1248 201.35 89.1734 201.359 89.1785 201.361C89.3833 201.399 89.5864 201.419 89.7878 201.419C91.3034 201.419 92.6546 200.345 92.9483 198.801C93.284 197.052 92.1376 195.363 90.3887 195.029Z" fill="url(#paint0_linear)" />
        <path d="M115.028 196.065L115.349 199.271L115.018 196.067C113.248 196.248 111.96 197.831 112.143 199.601C112.313 201.26 113.713 202.495 115.344 202.495C115.455 202.495 115.567 202.488 115.678 202.478L115.767 202.468C117.529 202.262 118.78 200.672 118.583 198.91C118.385 197.149 116.791 195.88 115.028 196.065Z" fill="url(#paint1_linear)" />
        <path d="M102.692 196.471C102.692 196.471 102.646 196.469 102.645 196.469C100.869 196.389 99.3852 197.769 99.3046 199.546C99.2257 201.324 100.622 202.829 102.4 202.91C102.45 202.913 102.499 202.913 102.549 202.913C104.261 202.913 105.688 201.565 105.765 199.836C105.846 198.059 104.471 196.552 102.692 196.471Z" fill="url(#paint2_linear)" />
        <path d="M78.485 191.755L78.4448 191.74C76.7697 191.139 74.9435 192.015 74.3426 193.69C73.74 195.365 74.6296 197.218 76.3047 197.821C76.6656 197.95 77.0332 198.01 77.394 198.01C78.715 198.01 79.9554 197.193 80.427 195.877C81.0296 194.202 80.1602 192.356 78.485 191.755Z" fill="url(#paint3_linear)" />
        <path d="M127.191 193.809L127.985 196.933L127.181 193.812C125.457 194.256 124.419 196.013 124.863 197.737C125.237 199.19 126.546 200.157 127.981 200.157C128.248 200.157 128.518 200.123 128.788 200.053C128.802 200.05 128.859 200.034 128.874 200.031C130.584 199.564 131.585 197.807 131.128 196.093C130.672 194.381 128.908 193.363 127.191 193.809Z" fill="url(#paint4_linear)" />
        <path d="M138.841 189.746L140.118 192.703L138.831 189.749C137.199 190.461 136.452 192.359 137.162 193.99C137.691 195.204 138.876 195.927 140.12 195.927C140.548 195.927 140.986 195.84 141.404 195.659C141.417 195.652 141.469 195.63 141.483 195.624C143.099 194.893 143.812 193 143.091 191.38C142.369 189.759 140.466 189.032 138.841 189.746Z" fill="url(#paint5_linear)" />
        <path d="M66.1751 42.8395C66.6921 42.8395 67.2174 42.7153 67.7025 42.4568C69.2735 41.6193 69.866 39.6672 69.0285 38.0962C68.1909 36.5268 66.2405 35.9309 64.6695 36.7702L64.6309 36.7903C63.0615 37.6279 62.4858 39.5699 63.3234 41.1409C63.9008 42.2252 65.022 42.8395 66.1751 42.8395Z" fill="url(#paint6_linear)" />
        <path d="M28.8981 78.8344C29.3765 79.0845 29.8884 79.2037 30.3936 79.2037C31.5534 79.2037 32.6747 78.5759 33.2504 77.4765L33.3074 77.364C34.093 75.7661 33.435 73.8342 31.8371 73.0504C30.251 72.2682 28.3341 72.9128 27.5386 74.4888C26.7161 76.0632 27.3237 78.0086 28.8981 78.8344Z" fill="url(#paint7_linear)" />
        <path d="M24.3612 90.9578C24.7036 91.0736 25.0511 91.129 25.3951 91.129C26.7379 91.129 27.9917 90.2813 28.4466 88.9386L28.4886 88.811C29.0122 87.1107 28.0572 85.3064 26.3552 84.7844C24.6684 84.264 22.8774 85.2006 22.3387 86.8791C21.773 88.5626 22.6777 90.3888 24.3612 90.9578Z" fill="url(#paint8_linear)" />
        <path d="M35.2562 67.5602C35.8285 67.9764 36.4915 68.1778 37.1495 68.1778C38.1448 68.1778 39.1284 67.7163 39.7578 66.8502L39.7998 66.7931C40.8337 65.3463 40.4963 63.3388 39.0528 62.3049C37.6077 61.2693 35.5935 61.6016 34.5562 63.0451L37.1528 64.9552L34.5462 63.0585C33.4988 64.4986 33.8177 66.5145 35.2562 67.5602Z" fill="url(#paint9_linear)" />
        <path d="M55.2349 49.8002C55.9113 49.8002 56.5927 49.587 57.1752 49.1439C58.6119 48.0932 58.9225 46.0774 57.8717 44.6406C56.8193 43.2038 54.8035 42.8933 53.3684 43.944L53.2878 44.0028C51.8712 45.0787 51.5892 47.1046 52.6651 48.5229C53.2996 49.3588 54.2614 49.8002 55.2349 49.8002Z" fill="url(#paint10_linear)" />
        <path d="M21.4843 139.831C21.9107 141.216 23.1829 142.104 24.5593 142.104C24.8732 142.104 25.1938 142.057 25.5093 141.96C27.2012 141.441 28.1562 139.648 27.6493 137.953C27.1643 136.261 25.4103 135.268 23.7033 135.733C21.9862 136.201 20.9741 137.973 21.4424 139.69C21.4524 139.724 21.4743 139.798 21.4843 139.831Z" fill="url(#paint11_linear)" />
        <path d="M45.4998 58.2931C46.3373 58.2931 47.1749 57.9692 47.8076 57.3247C49.0648 56.0658 49.0648 54.0248 47.8076 52.7676C46.5488 51.5088 44.5078 51.5088 43.2489 52.7676L43.1952 52.8213C41.9498 54.0919 41.975 56.1296 43.2456 57.375C43.8716 57.9893 44.6857 58.2931 45.4998 58.2931Z" fill="url(#paint12_linear)" />
        <path d="M25.046 125.781C24.8194 124.03 23.2198 122.788 21.4675 122.996C19.7018 123.208 18.4396 124.811 18.6494 126.578L18.6678 126.707C18.9028 128.309 20.2775 129.457 21.8502 129.457C22.0046 129.457 22.1624 129.445 22.3219 129.422C24.0759 129.166 25.2927 127.535 25.046 125.781Z" fill="url(#paint13_linear)" />
        <path d="M20.9975 116.551C21.0311 116.551 21.063 116.553 21.0949 116.553C22.8304 116.553 24.2638 115.171 24.3142 113.424L24.3176 113.286C24.3176 111.506 22.8741 110.064 21.0949 110.064C19.3275 110.064 17.8941 111.484 17.8722 113.244C17.8252 115.02 19.2234 116.499 20.9975 116.551Z" fill="url(#paint14_linear)" />
        <path d="M21.7042 103.627C21.8972 103.661 22.0869 103.677 22.2766 103.677C23.8073 103.677 25.1652 102.581 25.4455 101.022C25.4539 100.975 25.4606 100.928 25.4673 100.881C25.7275 99.1203 24.5106 97.4821 22.7482 97.2236C21.0076 96.9651 19.3778 98.1618 19.0975 99.8974C18.7921 101.646 19.9569 103.313 21.7042 103.627Z" fill="url(#paint15_linear)" />
        <path d="M173.723 68.5771C174.347 69.4835 175.351 69.9686 176.375 69.9686C177.004 69.9686 177.642 69.7839 178.199 69.3996C179.665 68.3925 180.035 66.385 179.028 64.9181L176.35 66.7107L179.018 64.903C178.018 63.4293 176.014 63.0449 174.542 64.0436C173.068 65.0423 172.684 67.0464 173.682 68.52L173.723 68.5771Z" fill="url(#paint16_linear)" />
        <path d="M190.18 101.007C188.411 101.205 187.139 102.801 187.338 104.57L187.355 104.709C187.585 106.316 188.965 107.476 190.543 107.476C190.694 107.476 190.848 107.465 191.002 107.444C192.75 107.194 193.968 105.584 193.742 103.838C193.539 102.074 191.937 100.809 190.18 101.007Z" fill="url(#paint17_linear)" />
        <path d="M184.742 91.9129L184.755 91.9549C185.168 93.3597 186.452 94.2695 187.845 94.2695C188.146 94.2695 188.451 94.2275 188.755 94.1369C190.464 93.635 191.441 91.8441 190.939 90.1354L190.925 90.0935C190.423 88.3848 188.633 87.4079 186.924 87.9114C185.217 88.4133 184.24 90.2042 184.742 91.9129Z" fill="url(#paint18_linear)" />
        <path d="M180.19 79.8631C180.752 81.0061 181.902 81.6725 183.097 81.6725C183.572 81.6725 184.055 81.5667 184.51 81.3418C186.106 80.5563 186.769 78.6361 185.982 77.0382L183.062 78.3995L185.979 77.0315C185.223 75.4202 183.305 74.727 181.694 75.4823C180.082 76.2376 179.387 78.1561 180.143 79.7674L180.19 79.8631Z" fill="url(#paint19_linear)" />
        <path d="M165.606 58.5131C166.237 59.1577 167.071 59.4799 167.907 59.4799C168.721 59.4799 169.535 59.1744 170.163 58.5584C171.425 57.3231 171.453 55.3039 170.236 54.0316C169.03 52.7308 166.995 52.6519 165.69 53.8571C164.382 55.0639 164.301 57.1032 165.508 58.4107L165.606 58.5131Z" fill="url(#paint20_linear)" />
        <path d="M191.227 114.463C189.457 114.418 187.975 115.806 187.912 117.577C187.832 119.341 189.186 120.843 190.952 120.942C191.014 120.945 191.073 120.947 191.135 120.947C192.832 120.947 194.254 119.619 194.349 117.902L194.354 117.77C194.405 115.992 193.005 114.515 191.227 114.463Z" fill="url(#paint21_linear)" />
        <path d="M144.997 42.6885L145.075 42.7305C145.555 42.9856 146.07 43.1065 146.577 43.1065C147.723 43.1065 148.833 42.4888 149.415 41.4062C150.254 39.8435 149.664 37.8898 148.106 37.0439L146.547 39.8637L148.096 37.0371C146.535 36.1811 144.576 36.7535 143.72 38.3145C142.866 39.8737 143.436 41.8342 144.997 42.6885Z" fill="url(#paint22_linear)" />
        <path d="M155.897 49.7566L155.948 49.7952C156.53 50.2367 157.213 50.4498 157.893 50.4498C158.867 50.4498 159.828 50.0101 160.463 49.1742C161.539 47.7559 161.26 45.735 159.844 44.6591L159.822 44.644C158.41 43.5597 156.388 43.8249 155.303 45.2365C154.219 46.6481 154.486 48.6723 155.897 49.7566Z" fill="url(#paint23_linear)" />
        <path d="M218.011 163.251L202.883 148.096C201.596 146.807 199.885 146.097 198.064 146.097C196.245 146.097 194.533 146.807 193.247 148.096L192.896 148.447L191.902 147.454C190.676 146.223 189.725 144.792 189.081 143.232C189.024 143.026 188.948 142.824 188.851 142.635C188.358 141.248 188.101 139.773 188.101 138.257V133.97C188.394 134.125 188.715 134.237 189.059 134.296C189.244 134.328 189.427 134.343 189.608 134.343C191.137 134.343 192.49 133.252 192.774 131.701C193.118 129.959 191.988 128.265 190.244 127.916C189.477 127.763 188.718 127.896 188.081 128.242C187.883 123.663 186.011 119.386 182.755 116.123L168.078 101.422C164.785 98.1234 160.406 96.3073 155.748 96.3073C152.143 96.3073 148.709 97.4 145.812 99.4225L144.254 97.8565V60.9974C144.254 56.5545 142.641 52.2677 139.714 48.9292C137.631 46.5559 136.485 43.5078 136.485 40.3456V37.6449H136.706C140.462 37.6449 143.519 34.5884 143.519 30.8303V9.39294C143.519 5.63486 140.462 2.57837 136.706 2.57837H76.5079C72.7515 2.57837 69.695 5.63486 69.695 9.39294V30.8303C69.695 34.5884 72.7515 37.6449 76.5079 37.6449H77.0047V39.0582C77.0047 42.5326 75.6535 45.7989 73.2013 48.2545L66.7039 54.7636C63.2564 58.2179 61.358 62.8085 61.358 67.6928V88.484C61.358 91.3088 62.0361 93.9759 63.2295 96.3392C58.9561 96.5859 54.9731 98.3668 51.9217 101.422L37.2452 116.123C33.7976 119.578 31.8993 124.17 31.8993 129.053V138.257C31.8993 141.732 30.5498 144.998 28.0975 147.454L27.1156 148.437C27.1106 148.44 27.1072 148.444 27.1039 148.447L26.7548 148.096C25.4674 146.807 23.757 146.097 21.9359 146.097C20.1164 146.097 18.4044 146.807 17.1187 148.096L1.98898 163.251C-0.662994 165.908 -0.662994 170.232 1.98898 172.889L7.17041 178.077C8.42758 179.338 10.4686 179.339 11.7274 178.082C12.9863 176.823 12.9897 174.784 11.7308 173.523L6.55106 168.334C6.40503 168.188 6.40503 167.951 6.55106 167.805L21.6808 152.65C21.8217 152.509 22.0517 152.507 22.1927 152.65L24.8228 155.285H24.8245L60.7387 191.262L64.762 195.293C64.908 195.439 64.908 195.676 64.762 195.822L49.6339 210.977C49.4913 211.119 49.2613 211.119 49.1203 210.977L20.8549 182.663C19.5978 181.402 17.5568 181.401 16.2979 182.658C15.0374 183.917 15.0357 185.956 16.2929 187.216L44.5599 215.53C45.8456 216.82 47.5577 217.53 49.3788 217.53C51.1983 217.53 52.9086 216.82 54.196 215.53L69.324 200.376C71.976 197.72 71.976 193.397 69.324 190.74L69.1595 190.575L71.068 188.663C73.297 186.429 76.2578 185.086 79.4049 184.883C83.8344 184.596 88.002 182.706 91.1391 179.563L105.037 165.635C109.045 164.582 112.165 161.318 113.013 157.229C114.441 157.909 116.037 158.291 117.723 158.291C123.784 158.291 128.715 153.355 128.715 147.286V139.634C130.101 140.266 131.64 140.622 133.262 140.622C139.323 140.622 144.252 135.686 144.252 129.616V106.994L154.165 116.956C154.795 117.589 155.622 117.904 156.45 117.904C157.272 117.904 158.095 117.592 158.724 116.966C159.985 115.71 159.99 113.671 158.734 112.409L150.47 104.104C152.069 103.223 153.872 102.753 155.748 102.753C158.682 102.753 161.442 103.897 163.516 105.977L178.193 120.677C180.425 122.914 181.655 125.889 181.655 129.053V138.257C181.655 143.452 183.675 148.335 187.34 152.007L188.341 153.009L183.666 157.692L155.394 186.013L153.818 184.434C153.801 184.418 153.786 184.402 153.769 184.387L153.492 184.108C150.156 180.766 145.723 178.757 141.013 178.451C138.148 178.265 135.452 177.043 133.413 175.002L122.823 164.47C121.561 163.214 119.52 163.219 118.265 164.482C117.011 165.744 117.016 167.785 118.278 169.039L128.861 179.563C131.998 182.706 136.166 184.596 140.597 184.883C143.742 185.086 146.703 186.429 148.932 188.662L149.088 188.818C149.172 188.913 149.261 189.002 149.355 189.086L150.84 190.573L150.676 190.74C148.024 193.397 148.024 197.719 150.676 200.376L165.804 215.53C167.091 216.82 168.802 217.53 170.623 217.53C172.442 217.53 174.154 216.82 175.442 215.53L218.011 172.887C220.663 170.23 220.663 165.908 218.011 163.251ZM190.261 131.206L190.201 131.196L189.613 131.077L190.261 131.206ZM86.577 175.009C84.5477 177.043 81.8521 178.265 78.9886 178.451C74.2772 178.757 69.8444 180.766 66.5076 184.108L64.6059 186.013L62.8938 184.298C62.872 184.276 62.8502 184.252 62.8284 184.232L31.6592 153.009L32.6596 152.007C36.3254 148.335 38.3446 143.452 38.3446 138.257V129.053C38.3446 125.889 39.5732 122.914 41.8073 120.677L56.4838 105.977C58.5583 103.897 61.3177 102.753 64.2517 102.753C66.1333 102.753 67.9427 103.226 69.5473 104.114L61.2691 112.405C60.0119 113.664 60.0136 115.705 61.2724 116.963C61.9019 117.59 62.726 117.904 63.5501 117.904C64.3759 117.904 65.2017 117.589 65.8311 116.959L75.719 107.053V147.286C75.719 153.355 80.6503 158.291 86.7113 158.291C88.42 158.291 90.038 157.899 91.4815 157.2C92.1361 160.395 94.1771 163.087 96.9432 164.621L86.577 175.009ZM137.809 129.618C137.809 132.133 135.768 134.179 133.262 134.179C130.754 134.179 128.715 132.133 128.715 129.618V93.6704C128.715 91.8913 127.273 90.4478 125.492 90.4478C123.711 90.4478 122.27 91.8913 122.27 93.6704V147.287C122.27 149.802 120.23 151.846 117.723 151.846C115.472 151.846 113.604 150.198 113.243 148.041V93.6335C113.243 91.8527 111.801 90.4109 110.02 90.4109C109.448 90.4109 108.909 90.5619 108.442 90.8238C107.424 91.3659 106.73 92.4368 106.73 93.6704V147.286C106.73 147.695 106.754 148.096 106.797 148.494V154.988C106.797 157.503 104.758 159.549 102.251 159.549C99.7446 159.549 97.7052 157.503 97.7052 154.988V93.5949C97.7052 91.8157 96.2617 90.3723 94.4826 90.3723C92.7017 90.3723 91.2582 91.8157 91.2582 93.5949V147.286C91.2582 149.8 89.2189 151.846 86.713 151.846C84.2053 151.846 82.166 149.8 82.166 147.286V87.3393C82.166 85.5584 80.7225 84.1149 78.9433 84.1149C77.1625 84.1149 75.7207 85.5584 75.7207 87.3393V98.4272C75.4504 98.5145 75.1886 98.637 74.9452 98.7982C70.7776 97.2321 67.8033 93.2005 67.8033 88.484V67.6928C67.8033 64.5289 69.0337 61.5547 71.266 59.3173L77.7634 52.8082C81.4308 49.1357 83.45 44.253 83.45 39.0582V37.6449H89.9289C91.7097 37.6449 93.1516 36.2014 93.1516 34.4222C93.1516 32.6414 91.7097 31.1996 89.9289 31.1996H76.5079C76.3048 31.1996 76.1403 31.0334 76.1403 30.8303V9.39294C76.1403 9.18985 76.3048 9.02368 76.5079 9.02368H136.704C136.909 9.02368 137.074 9.18985 137.074 9.39294V30.8303C137.074 31.0351 136.909 31.1996 136.704 31.1996H105.059C103.279 31.1996 101.836 32.6414 101.836 34.4222C101.836 36.2014 103.279 37.6449 105.059 37.6449H130.039V40.3456C130.039 45.0721 131.753 49.6292 134.866 53.1808C136.763 55.3427 137.809 58.1188 137.809 60.9974V129.618ZM213.449 168.334L170.88 210.977C170.809 211.049 170.724 211.084 170.623 211.084C170.524 211.084 170.438 211.049 170.366 210.977L155.238 195.822C155.092 195.676 155.092 195.439 155.238 195.293L157.673 192.853L157.675 192.851L182.387 168.097L197.807 152.65C197.948 152.507 198.178 152.507 198.319 152.65L213.449 167.805C213.595 167.951 213.595 168.188 213.449 168.334Z" fill="url(#paint24_linear)" />
        <path d="M86.7111 16.6741C84.8194 16.6741 83.2803 18.2166 83.2803 20.1116C83.2803 22.0082 84.8194 23.5491 86.7111 23.5491C88.6044 23.5491 90.1435 22.0082 90.1435 20.1116C90.1435 18.2166 88.6044 16.6741 86.7111 16.6741Z" fill="url(#paint25_linear)" />
        <path d="M199.118 163.577C197.225 163.577 195.685 165.119 195.685 167.014C195.685 168.909 197.225 170.452 199.118 170.452C201.009 170.452 202.549 168.909 202.549 167.014C202.549 165.119 201.009 163.577 199.118 163.577Z" fill="url(#paint26_linear)" />
        <path d="M53.7042 196.454C53.7042 194.559 52.165 193.017 50.2734 193.017C48.3801 193.017 46.8409 194.559 46.8409 196.454C46.8409 198.349 48.3801 199.892 50.2734 199.892C52.165 199.892 53.7042 198.349 53.7042 196.454Z" fill="url(#paint27_linear)" />
    </g>
    <defs>
        <linearGradient id="paint0_linear" x1="86.5188" y1="201.123" x2="91.7316" y2="200.824" gradientUnits="userSpaceOnUse">
            <stop offset="0.160824" stop-color="#9F2FFF" />
            <stop offset="1" stop-color="#0BB1D3" />
        </linearGradient>
        <linearGradient id="paint1_linear" x1="112.126" y1="202.199" x2="117.331" y2="201.9" gradientUnits="userSpaceOnUse">
            <stop offset="0.160824" stop-color="#9F2FFF" />
            <stop offset="1" stop-color="#0BB1D3" />
        </linearGradient>
        <linearGradient id="paint2_linear" x1="99.3015" y1="202.617" x2="104.498" y2="202.319" gradientUnits="userSpaceOnUse">
            <stop offset="0.160824" stop-color="#9F2FFF" />
            <stop offset="1" stop-color="#0BB1D3" />
        </linearGradient>
        <linearGradient id="paint3_linear" x1="74.1538" y1="197.714" x2="79.3479" y2="197.417" gradientUnits="userSpaceOnUse">
            <stop offset="0.160824" stop-color="#9F2FFF" />
            <stop offset="1" stop-color="#0BB1D3" />
        </linearGradient>
        <linearGradient id="paint4_linear" x1="124.76" y1="199.861" x2="129.965" y2="199.562" gradientUnits="userSpaceOnUse">
            <stop offset="0.160824" stop-color="#9F2FFF" />
            <stop offset="1" stop-color="#0BB1D3" />
        </linearGradient>
        <linearGradient id="paint5_linear" x1="136.894" y1="195.631" x2="142.099" y2="195.333" gradientUnits="userSpaceOnUse">
            <stop offset="0.160824" stop-color="#9F2FFF" />
            <stop offset="1" stop-color="#0BB1D3" />
        </linearGradient>
        <linearGradient id="paint6_linear" x1="62.9394" y1="42.5433" x2="68.1373" y2="42.2456" gradientUnits="userSpaceOnUse">
            <stop offset="0.160824" stop-color="#9F2FFF" />
            <stop offset="1" stop-color="#0BB1D3" />
        </linearGradient>
        <linearGradient id="paint7_linear" x1="27.1719" y1="78.9058" x2="32.3683" y2="78.6099" gradientUnits="userSpaceOnUse">
            <stop offset="0.160824" stop-color="#9F2FFF" />
            <stop offset="1" stop-color="#0BB1D3" />
        </linearGradient>
        <linearGradient id="paint8_linear" x1="22.1702" y1="90.831" x2="27.3624" y2="90.5357" gradientUnits="userSpaceOnUse">
            <stop offset="0.160824" stop-color="#9F2FFF" />
            <stop offset="1" stop-color="#0BB1D3" />
        </linearGradient>
        <linearGradient id="paint9_linear" x1="33.9293" y1="67.8805" x2="39.1281" y2="67.5838" gradientUnits="userSpaceOnUse">
            <stop offset="0.160824" stop-color="#9F2FFF" />
            <stop offset="1" stop-color="#0BB1D3" />
        </linearGradient>
        <linearGradient id="paint10_linear" x1="52.0112" y1="49.5027" x2="57.2203" y2="49.205" gradientUnits="userSpaceOnUse">
            <stop offset="0.160824" stop-color="#9F2FFF" />
            <stop offset="1" stop-color="#0BB1D3" />
        </linearGradient>
        <linearGradient id="paint11_linear" x1="21.328" y1="141.806" x2="26.5165" y2="141.511" gradientUnits="userSpaceOnUse">
            <stop offset="0.160824" stop-color="#9F2FFF" />
            <stop offset="1" stop-color="#0BB1D3" />
        </linearGradient>
        <linearGradient id="paint12_linear" x1="42.2767" y1="57.9961" x2="47.4784" y2="57.6988" gradientUnits="userSpaceOnUse">
            <stop offset="0.160824" stop-color="#9F2FFF" />
            <stop offset="1" stop-color="#0BB1D3" />
        </linearGradient>
        <linearGradient id="paint13_linear" x1="18.6266" y1="129.159" x2="23.8103" y2="128.865" gradientUnits="userSpaceOnUse">
            <stop offset="0.160824" stop-color="#9F2FFF" />
            <stop offset="1" stop-color="#0BB1D3" />
        </linearGradient>
        <linearGradient id="paint14_linear" x1="17.8711" y1="116.255" x2="23.051" y2="115.961" gradientUnits="userSpaceOnUse">
            <stop offset="0.160824" stop-color="#9F2FFF" />
            <stop offset="1" stop-color="#0BB1D3" />
        </linearGradient>
        <linearGradient id="paint15_linear" x1="19.0489" y1="103.379" x2="24.2344" y2="103.085" gradientUnits="userSpaceOnUse">
            <stop offset="0.160824" stop-color="#9F2FFF" />
            <stop offset="1" stop-color="#0BB1D3" />
        </linearGradient>
        <linearGradient id="paint16_linear" x1="173.127" y1="69.671" x2="178.324" y2="69.3747" gradientUnits="userSpaceOnUse">
            <stop offset="0.160824" stop-color="#9F2FFF" />
            <stop offset="1" stop-color="#0BB1D3" />
        </linearGradient>
        <linearGradient id="paint17_linear" x1="187.318" y1="107.178" x2="192.501" y2="106.883" gradientUnits="userSpaceOnUse">
            <stop offset="0.160824" stop-color="#9F2FFF" />
            <stop offset="1" stop-color="#0BB1D3" />
        </linearGradient>
        <linearGradient id="paint18_linear" x1="184.61" y1="93.9714" x2="189.801" y2="93.6763" gradientUnits="userSpaceOnUse">
            <stop offset="0.160824" stop-color="#9F2FFF" />
            <stop offset="1" stop-color="#0BB1D3" />
        </linearGradient>
        <linearGradient id="paint19_linear" x1="179.838" y1="81.3742" x2="185.041" y2="81.0779" gradientUnits="userSpaceOnUse">
            <stop offset="0.160824" stop-color="#9F2FFF" />
            <stop offset="1" stop-color="#0BB1D3" />
        </linearGradient>
        <linearGradient id="paint20_linear" x1="164.653" y1="59.1825" x2="169.857" y2="58.8853" gradientUnits="userSpaceOnUse">
            <stop offset="0.160824" stop-color="#9F2FFF" />
            <stop offset="1" stop-color="#0BB1D3" />
        </linearGradient>
        <linearGradient id="paint21_linear" x1="187.909" y1="120.649" x2="193.089" y2="120.355" gradientUnits="userSpaceOnUse">
            <stop offset="0.160824" stop-color="#9F2FFF" />
            <stop offset="1" stop-color="#0BB1D3" />
        </linearGradient>
        <linearGradient id="paint22_linear" x1="143.323" y1="42.8095" x2="148.525" y2="42.5121" gradientUnits="userSpaceOnUse">
            <stop offset="0.160824" stop-color="#9F2FFF" />
            <stop offset="1" stop-color="#0BB1D3" />
        </linearGradient>
        <linearGradient id="paint23_linear" x1="154.637" y1="50.1526" x2="159.844" y2="49.8548" gradientUnits="userSpaceOnUse">
            <stop offset="0.160824" stop-color="#9F2FFF" />
            <stop offset="1" stop-color="#0BB1D3" />
        </linearGradient>
        <linearGradient id="paint24_linear" x1="1.13548e-06" y1="207.659" x2="176.742" y2="197.328" gradientUnits="userSpaceOnUse">
            <stop offset="0.160824" stop-color="#9F2FFF" />
            <stop offset="1" stop-color="#0BB1D3" />
        </linearGradient>
        <linearGradient id="paint25_linear" x1="83.2803" y1="23.2334" x2="88.7949" y2="22.919" gradientUnits="userSpaceOnUse">
            <stop offset="0.160824" stop-color="#9F2FFF" />
            <stop offset="1" stop-color="#0BB1D3" />
        </linearGradient>
        <linearGradient id="paint26_linear" x1="195.685" y1="170.136" x2="201.2" y2="169.822" gradientUnits="userSpaceOnUse">
            <stop offset="0.160824" stop-color="#9F2FFF" />
            <stop offset="1" stop-color="#0BB1D3" />
        </linearGradient>
        <linearGradient id="paint27_linear" x1="46.8409" y1="199.576" x2="52.3556" y2="199.262" gradientUnits="userSpaceOnUse">
            <stop offset="0.160824" stop-color="#9F2FFF" />
            <stop offset="1" stop-color="#0BB1D3" />
        </linearGradient>
        <clipPath id="clip0">
            <rect width="220" height="220" fill="white" />
        </clipPath>
    </defs>
</svg>
