<svg width="220" height="220" viewBox="0 0 220 220" fill="none" xmlns="http://www.w3.org/2000/svg">
    <path d="M79.0625 144.375H85.9375V137.327C88.0242 136.901 89.8783 135.715 91.1405 134C92.4027 132.285 92.9831 130.162 92.769 128.043C92.555 125.924 91.5618 123.96 89.982 122.532C88.4023 121.103 86.3485 120.313 84.2188 120.312H80.7813C80.3254 120.312 79.8883 120.131 79.5659 119.809C79.2436 119.487 79.0625 119.05 79.0625 118.594C79.0625 118.138 79.2436 117.701 79.5659 117.378C79.8883 117.056 80.3254 116.875 80.7813 116.875H92.8125V110H85.9375V103.125H79.0625V110.173C76.9759 110.599 75.1217 111.785 73.8595 113.5C72.5973 115.215 72.017 117.338 72.231 119.457C72.4451 121.576 73.4383 123.54 75.018 124.968C76.5978 126.397 78.6516 127.187 80.7813 127.188H84.2188C84.6746 127.188 85.1118 127.369 85.4341 127.691C85.7565 128.013 85.9375 128.45 85.9375 128.906C85.9375 129.362 85.7565 129.799 85.4341 130.122C85.1118 130.444 84.6746 130.625 84.2188 130.625H72.1875V137.5H79.0625V144.375Z" fill="url(#paint0_linear)" />
    <path d="M206.25 92.8125C206.25 91.9008 205.888 91.0265 205.243 90.3818C204.599 89.7372 203.724 89.375 202.813 89.375H182.188C181.276 89.375 180.402 89.7372 179.757 90.3818C179.112 91.0265 178.75 91.9008 178.75 92.8125V106.563H161.563C160.651 106.563 159.777 106.925 159.132 107.569C158.487 108.214 158.125 109.088 158.125 110V120.312H140.938C140.026 120.313 139.152 120.675 138.507 121.319C137.862 121.964 137.5 122.838 137.5 123.75V156.193L123.643 139.565C126.266 133.87 127.464 127.623 127.134 121.362C126.804 115.102 124.956 109.015 121.749 103.628L135.268 92.8125H158.125V85.9375H134.063C133.282 85.9375 132.525 86.2031 131.915 86.6907L117.714 98.0514C117.615 97.9369 117.521 97.8183 117.42 97.7048L100.231 78.3668L103.335 70.6047C103.843 69.3369 103.977 67.9504 103.722 66.6089C103.467 65.2673 102.834 64.0266 101.897 63.033C100.961 62.0394 99.7592 61.3344 98.4349 61.0012C97.1107 60.6679 95.7187 60.7202 94.4232 61.152C94.3639 61.172 94.2996 61.1719 94.2403 61.1516C94.1811 61.1314 94.1302 61.0921 94.0955 61.04L90.7044 55.9534C89.8039 54.6027 88.5839 53.4952 87.1527 52.7293C85.7215 51.9633 84.1232 51.5625 82.4999 51.5625C80.8766 51.5625 79.2784 51.9633 77.8472 52.7293C76.4159 53.4952 75.1959 54.6027 74.2955 55.9534L70.9048 61.04C70.87 61.0921 70.8191 61.1313 70.7598 61.1516C70.7005 61.1718 70.6362 61.172 70.5768 61.152C69.2814 60.7202 67.8895 60.6679 66.5653 61.0011C65.241 61.3344 64.0397 62.0393 63.103 63.0328C62.1662 64.0263 61.5331 65.267 61.2782 66.6085C61.0234 67.95 61.1574 69.3365 61.6646 70.6043L64.7693 78.3668L47.5802 97.7044C42.8427 103.031 39.6711 109.565 38.4161 116.582C37.1611 123.599 37.8716 130.827 40.4691 137.466L8.21655 162.275L12.4085 167.725L19.4599 162.3L46.7501 198.687L35.7501 206.937L39.8749 212.438L53.2953 202.372L76.9791 192.222C77.7264 191.902 78.3359 191.327 78.6996 190.6L84.9103 178.178L113.649 169.557C115.401 169.032 116.961 168.004 118.134 166.601C119.308 165.198 120.045 163.482 120.252 161.664C120.46 159.847 120.13 158.009 119.302 156.377C118.475 154.746 117.188 153.393 115.599 152.486L119.982 145.911L134.859 163.763C135.182 164.15 135.586 164.462 136.042 164.675C136.498 164.889 136.996 165 137.5 165H213.125V158.125H206.25V92.8125ZM68.1051 67.7497C68.1385 67.7046 68.1864 67.6726 68.2407 67.6589C68.2951 67.6452 68.3525 67.6507 68.4032 67.6745C69.8936 68.1686 71.5048 68.1601 72.99 67.6506C74.4751 67.141 75.7521 66.1584 76.6252 64.8535L80.0159 59.7669C80.2885 59.3579 80.6579 59.0226 81.0912 58.7908C81.5246 58.5589 82.0084 58.4375 82.4999 58.4375C82.9914 58.4375 83.4753 58.5589 83.9086 58.7908C84.3419 59.0226 84.7113 59.3579 84.9839 59.7669L88.3751 64.8535C89.2484 66.1582 90.5254 67.1405 92.0104 67.6501C93.4954 68.1596 95.1065 68.1682 96.5968 67.6745C96.6485 67.6573 96.704 67.6552 96.7568 67.6685C96.8096 67.6818 96.8575 67.7099 96.8948 67.7495C96.9322 67.7891 96.9574 67.8386 96.9676 67.892C96.9778 67.9455 96.9725 68.0008 96.9522 68.0514L93.9228 75.625H71.0773L68.0478 68.0509C68.0212 68.0018 68.0124 67.945 68.0228 67.8901C68.0332 67.8352 68.0623 67.7856 68.1051 67.7497ZM44.6875 123.395C44.6846 115.608 47.5427 108.09 52.7186 102.272L70.2936 82.5H74.7857C73.0112 85.1579 71.8701 88.1875 71.4503 91.3556C71.0305 94.5237 71.343 97.746 72.364 100.774L78.8861 98.6007C78.046 96.1086 77.921 93.4309 78.5252 90.8713C79.1295 88.3117 80.4388 85.9727 82.3047 84.1193L82.5 83.9238L82.6952 84.1189C84.5611 85.9723 85.8705 88.3114 86.4748 90.8711C87.079 93.4307 86.954 96.1085 86.114 98.6007L92.6361 100.774C93.657 97.746 93.9696 94.5237 93.5497 91.3556C93.1299 88.1875 91.9888 85.1579 90.2144 82.5H94.7064L112.282 102.272C116.952 107.526 119.749 114.18 120.236 121.193C120.723 128.206 118.872 135.182 114.973 141.031L108.16 151.25H63.9996L67.2165 144.816C68.2224 142.798 68.7473 140.575 68.75 138.32C68.7501 136.241 68.168 134.204 67.0696 132.439C65.9712 130.673 64.4005 129.251 62.5353 128.333C60.6702 127.414 58.5851 127.036 56.5163 127.242C54.4474 127.448 52.4775 128.229 50.8297 129.496L46.1968 133.06C45.2011 129.935 44.6921 126.675 44.6875 123.395ZM111.673 162.972L81.5122 172.02C81.0631 172.155 80.6463 172.38 80.2875 172.682C79.9286 172.984 79.6353 173.356 79.4255 173.775L73.1136 186.399L52.6914 195.151L24.9095 158.108L55.0213 134.945C55.6515 134.461 56.4049 134.162 57.1962 134.083C57.9874 134.005 58.7848 134.149 59.4982 134.501C60.2115 134.852 60.8122 135.396 61.2323 136.071C61.6524 136.746 61.875 137.525 61.875 138.32C61.8736 139.508 61.5972 140.678 61.0675 141.741L55.363 153.15C55.1009 153.674 54.9772 154.256 55.0035 154.842C55.0298 155.427 55.2053 155.996 55.5134 156.495C55.8214 156.993 56.2517 157.405 56.7635 157.69C57.2753 157.975 57.8516 158.125 58.4375 158.125H110.962C111.556 158.125 112.131 158.339 112.58 158.727C113.03 159.116 113.325 159.653 113.411 160.241C113.498 160.829 113.369 161.428 113.05 161.93C112.731 162.431 112.242 162.801 111.673 162.972H111.673ZM144.375 127.188H158.125V158.125H144.375V127.188ZM165 113.438H178.75V158.125H165V113.438ZM185.625 158.125V96.25H199.375V158.125H185.625Z" fill="url(#paint1_linear)" />
    <path d="M175.313 6.875C167.834 6.875 160.523 9.09266 154.305 13.2476C148.087 17.4024 143.24 23.308 140.378 30.2173C137.516 37.1266 136.768 44.7294 138.227 52.0644C139.686 59.3993 143.287 66.1368 148.575 71.425C153.863 76.7132 160.601 80.3144 167.936 81.7734C175.271 83.2324 182.873 82.4836 189.783 79.6217C196.692 76.7598 202.598 71.9132 206.752 65.695C210.907 59.4768 213.125 52.1661 213.125 44.6875C213.114 34.6625 209.126 25.0513 202.037 17.9625C194.949 10.8738 185.338 6.88632 175.313 6.875ZM206.054 41.25H192.154C191.474 37.9504 189.842 34.9224 187.46 32.5402C185.078 30.158 182.05 28.526 178.75 27.8459V13.9455C185.719 14.7351 192.215 17.8656 197.175 22.8253C202.134 27.785 205.265 34.2805 206.054 41.25ZM189.645 54.1587C190.862 52.3275 191.714 50.2789 192.154 48.125H206.054C205.408 53.9285 203.124 59.4284 199.469 63.9828L189.645 54.1587ZM175.313 34.375C177.352 34.375 179.346 34.9798 181.042 36.113C182.738 37.2461 184.059 38.8567 184.84 40.7411C185.621 42.6254 185.825 44.6989 185.427 46.6994C185.029 48.6998 184.047 50.5373 182.605 51.9795C181.162 53.4218 179.325 54.4039 177.324 54.8018C175.324 55.1998 173.25 54.9955 171.366 54.215C169.482 53.4345 167.871 52.1127 166.738 50.4168C165.605 48.7209 165 46.7271 165 44.6875C165.003 41.9534 166.091 39.3322 168.024 37.3989C169.957 35.4656 172.578 34.3781 175.313 34.375ZM144.375 44.6875C144.385 37.0808 147.193 29.7437 152.265 24.0743C157.336 18.4049 164.316 14.7997 171.875 13.9455V27.8459C169.391 28.3508 167.049 29.399 165.017 30.9155C162.986 32.4319 161.315 34.379 160.124 36.6172C158.934 38.8554 158.253 41.3292 158.131 43.8614C158.009 46.3936 158.449 48.9214 159.419 51.2636C160.389 53.6059 161.865 55.7046 163.741 57.4092C165.618 59.1139 167.848 60.3824 170.272 61.1237C172.696 61.8651 175.255 62.0609 177.764 61.6972C180.272 61.3335 182.67 60.4193 184.784 59.0201L194.608 68.8443C190.06 72.4853 184.575 74.767 178.787 75.4264C172.998 76.0857 167.141 75.0959 161.891 72.571C156.64 70.0461 152.21 66.0889 149.111 61.1555C146.012 56.2222 144.37 50.5135 144.375 44.6875Z" fill="url(#paint2_linear)" />
    <defs>
        <linearGradient id="paint0_linear" x1="72.1875" y1="142.481" x2="88.8001" y2="142.006" gradientUnits="userSpaceOnUse">
            <stop offset="0.160824" stop-color="#9F2FFF" />
            <stop offset="1" stop-color="#0BB1D3" />
        </linearGradient>
        <linearGradient id="paint1_linear" x1="8.21655" y1="205.051" x2="172.527" y2="193.097" gradientUnits="userSpaceOnUse">
            <stop offset="0.160824" stop-color="#9F2FFF" />
            <stop offset="1" stop-color="#0BB1D3" />
        </linearGradient>
        <linearGradient id="paint2_linear" x1="137.5" y1="79.0274" x2="198.264" y2="75.5569" gradientUnits="userSpaceOnUse">
            <stop offset="0.160824" stop-color="#9F2FFF" />
            <stop offset="1" stop-color="#0BB1D3" />
        </linearGradient>
    </defs>
</svg>
