<svg width="294" height="294" viewBox="0 0 294 294" fill="none" xmlns="http://www.w3.org/2000/svg">
    <g clip-path="url(#clip0)">
        <path d="M17.1704 116.269V176.77C7.3696 178.879 0.000152588 187.608 0.000152588 198.03C0.000152588 215.247 19.102 225.527 33.4323 216.36L76.6789 259.606C67.5089 273.942 77.7967 293.038 95.0087 293.038C116.217 293.038 124.917 265.548 107.35 253.395L126.726 206.461L159.708 239.443L125.45 253.68C123.115 254.65 122.009 257.33 122.98 259.665C123.95 262 126.629 263.107 128.965 262.136L166.714 246.448L179.767 259.502C170.502 273.807 180.739 293.038 198.03 293.038C215.247 293.038 225.527 273.936 216.36 259.606L259.606 216.36C273.942 225.53 293.039 215.242 293.039 198.03C293.039 184.476 280.725 174.192 267.36 176.643L254.841 146.519L267.361 116.395C280.702 118.841 293.039 108.583 293.039 95.0085C293.039 77.7913 273.937 67.5115 259.606 76.6787L216.36 33.4326C225.53 19.0972 215.242 -9.15527e-05 198.03 -9.15527e-05C187.608 -9.15527e-05 178.88 7.36935 176.77 17.1701H116.269C114.16 7.36935 105.43 -9.15527e-05 95.0093 -9.15527e-05C83.017 -9.15527e-05 73.2603 9.75659 73.2603 21.7488C73.2603 33.7411 83.017 43.4978 95.0093 43.4978C105.431 43.4978 114.16 36.1283 116.269 26.3276H175.08L39.6136 82.6253C27.3746 65.0218 0.000152588 73.9698 0.000152588 95.0085C0.000152588 105.43 7.3696 114.159 17.1704 116.269ZM43.1443 194.15L55.8177 188.918L82.04 252.016L39.9449 209.922C42.9085 205.403 44.1723 199.827 43.1443 194.15ZM39.6433 185.688C36.5475 181.214 31.8206 177.952 26.3278 176.77V117.957L52.3035 180.461L39.6433 185.688ZM34.8391 114.574L86.5776 166.312L60.7684 176.967L34.8391 114.574ZM9.15759 198.03C9.15759 191.087 14.806 185.438 21.7491 185.438C28.6922 185.438 34.3406 191.087 34.3406 198.03C34.3406 204.973 28.6922 210.621 21.7491 210.621C14.806 210.621 9.15759 204.973 9.15759 198.03ZM95.0087 283.881C88.0656 283.881 82.4172 278.232 82.4172 271.289C82.4172 264.346 88.0656 258.698 95.0087 258.698C101.952 258.698 107.6 264.346 107.6 271.289C107.6 278.232 101.952 283.881 95.0087 283.881ZM98.888 249.894C96.289 249.424 93.7186 249.419 91.079 249.903L64.2826 185.424L93.5893 173.325L119.714 199.45L98.888 249.894ZM102.756 169.54L138.083 154.955L123.499 190.282L102.756 169.54ZM201.959 249.903C196.416 248.887 190.848 250.044 186.243 253.026L175.863 242.646L211.052 228.022L201.959 249.903ZM223.04 223.04L252.016 210.998L210.998 252.016L223.04 223.04ZM198.03 283.881C191.087 283.881 185.439 278.232 185.439 271.289C185.439 264.346 191.087 258.698 198.03 258.698C204.973 258.698 210.622 264.346 210.622 271.289C210.622 278.232 204.973 283.881 198.03 283.881ZM283.881 198.03C283.881 204.973 278.233 210.621 271.29 210.621C264.347 210.621 258.698 204.973 258.698 198.03C258.698 191.087 264.347 185.438 271.29 185.438C278.233 185.438 283.881 191.087 283.881 198.03ZM258.906 180.165C251.943 185.007 248.34 193.438 249.903 201.959L228.022 211.053L249.882 158.451L258.906 180.165ZM249.882 134.588L240.735 112.576L253.395 107.35C254.886 109.505 256.755 111.377 258.906 112.873L249.882 134.588ZM249.894 98.8884L237.221 104.12L210.998 41.0219L253.094 83.1164C250.136 87.6264 248.865 93.1999 249.894 98.8884ZM283.881 95.0085C283.881 101.952 278.233 107.6 271.29 107.6C264.347 107.6 258.698 101.952 258.698 95.0085C258.698 88.0654 264.347 82.417 271.29 82.417C278.233 82.417 283.881 88.0654 283.881 95.0085ZM198.03 9.15735C204.973 9.15735 210.622 14.8058 210.622 21.7488C210.622 28.6919 204.973 34.3404 198.03 34.3404C191.087 34.3404 185.439 28.6919 185.439 21.7488C185.439 14.8058 191.087 9.15735 198.03 9.15735ZM95.0087 34.3404C88.0656 34.3404 82.4172 28.6919 82.4172 21.7488C82.4172 14.8058 88.0656 9.15735 95.0087 9.15735C101.952 9.15735 107.6 14.8058 107.6 21.7488C107.6 28.6919 101.952 34.3404 95.0087 34.3404ZM180.165 34.1314C184.997 41.082 193.421 44.6997 201.959 43.1355L228.756 107.615L210.912 114.981C208.575 115.946 207.462 118.623 208.427 120.961C209.392 123.299 212.07 124.41 214.406 123.446L232.27 116.071L244.924 146.519L216.035 216.034L168.857 235.641L130.511 197.294L150.026 150.025L181.156 137.173C183.494 136.208 184.606 133.532 183.641 131.194C182.672 128.845 179.988 127.749 177.662 128.709L154.957 138.083L187.621 58.9619C188.869 55.9422 186.635 52.6346 183.391 52.6346C181.592 52.6346 179.886 53.7015 179.157 55.4672L143.014 143.013L95.7453 162.528L40.0136 106.796C42.9927 102.196 44.1545 96.6288 43.1369 91.0793L180.165 34.1314ZM21.7491 82.417C28.6922 82.417 34.3406 88.0654 34.3406 95.0085C34.3406 101.952 28.6922 107.6 21.7491 107.6C14.806 107.6 9.15759 101.952 9.15759 95.0085C9.15759 88.0654 14.806 82.417 21.7491 82.417Z" fill="url(#paint0_linear)" fill-opacity="0.2" />
        <path d="M197.767 130.315C200.273 129.289 201.251 126.573 200.328 124.318C199.368 121.974 196.692 120.859 194.355 121.816C191.849 122.843 190.871 125.558 191.794 127.813C192.753 130.152 195.427 131.273 197.767 130.315Z" fill="url(#paint1_linear)" fill-opacity="0.2" />
    </g>
    <defs>
        <linearGradient id="paint0_linear" x1="293.039" y1="13.4557" x2="57.5836" y2="26.9038" gradientUnits="userSpaceOnUse">
            <stop offset="0.160824" stop-color="#9F2FFF" />
            <stop offset="1" stop-color="#0BB1D3" />
        </linearGradient>
        <linearGradient id="paint1_linear" x1="200.67" y1="121.895" x2="193.264" y2="122.32" gradientUnits="userSpaceOnUse">
            <stop offset="0.160824" stop-color="#9F2FFF" />
            <stop offset="1" stop-color="#0BB1D3" />
        </linearGradient>
        <clipPath id="clip0">
            <rect width="293.038" height="293.038" fill="white" transform="translate(293.039 293.038) rotate(180)" />
        </clipPath>
    </defs>
</svg>
