<svg width="61" height="36" viewBox="0 0 61 36" fill="none" xmlns="http://www.w3.org/2000/svg">
    <path d="M12.1997 18C12.1997 27.9411 20.2586 36 30.1997 36C40.1408 36 48.1997 27.9411 48.1997 18C48.1997 8.05887 40.1408 0 30.1997 0C20.2586 0 12.1997 8.05887 12.1997 18Z" fill="#383B51" />
    <path fill-rule="evenodd" clip-rule="evenodd" d="M27.3117 24.3762C10.7103 16.8558 -1.45466 7.90455 0.140576 4.38303C1.19267 2.06052 7.96722 2.6798 17.2209 5.52812C15.6263 7.18719 14.3467 9.15132 13.4785 11.3243C18.2024 13.5506 20.2522 14.4272 29.2522 18.467C38.2522 22.5067 40.9463 23.5433 46.4033 25.8485C47.3432 23.9116 47.9461 21.7809 48.1356 19.5325C56.379 24.6103 61.3118 29.2944 60.2598 31.6169C58.6645 35.1384 43.9132 31.8967 27.3117 24.3762Z" fill="#383B51" />
</svg>
