<svg width="250" height="250" viewBox="0 0 250 250" fill="none" xmlns="http://www.w3.org/2000/svg">
    <g clip-path="url(#clip0)">
        <path d="M231.07 68.456C228.643 69.6308 227.627 72.5507 228.801 74.978C236.388 90.6552 240.234 107.484 240.234 125C240.234 188.54 188.541 240.234 125 240.234C100.093 240.234 75.714 232.051 55.839 217.109C58.4347 211.665 57.4845 204.938 52.9821 200.436C47.2706 194.725 37.9777 194.725 32.2657 200.436C26.5543 206.147 26.5543 215.44 32.2657 221.152C36.6842 225.571 43.3409 226.631 48.8448 224.056C70.6075 240.807 97.507 250 125 250C193.925 250 250 193.925 250 125C250 105.999 245.825 87.7382 237.592 70.7246C236.418 68.2973 233.498 67.2817 231.07 68.456Z" fill="url(#paint0_linear)" />
        <path d="M17.7002 179.183C20.1533 178.063 21.2334 175.166 20.1128 172.713C13.2466 157.682 9.76563 141.629 9.76563 125C9.76563 61.4595 61.4595 9.76562 125 9.76562C149.516 9.76562 172.712 17.2983 192.418 31.5981C188.993 37.2339 189.71 44.6982 194.576 49.5645C200.288 55.2759 209.581 55.2759 215.292 49.5645C221.004 43.853 221.004 34.5601 215.292 28.8481C211.251 24.8066 205.417 23.6294 200.327 25.3071C178.645 8.88037 152.375 0 125 0C56.0747 0 0 56.0747 0 125C0 143.039 3.77832 160.457 11.23 176.77C12.3447 179.211 15.2354 180.309 17.7002 179.183V179.183Z" fill="url(#paint1_linear)" />
        <path d="M125 32.2266C77.2432 32.2266 32.2266 70.1592 32.2266 125C32.2266 175.796 73.4858 217.773 125 217.773C176.504 217.773 217.773 175.822 217.773 125C217.773 74.2036 176.514 32.2266 125 32.2266ZM98.8652 46.2109C88.7749 58.2056 82.6685 75.3247 79.5083 90.8203H49.3594C58.8652 69.8677 76.8291 53.5396 98.8652 46.2109ZM41.9922 125C41.9922 116.507 43.2769 108.308 45.6582 100.586L77.8354 100.581C76.7388 108.44 76.1719 116.641 76.1719 125C76.1719 133.359 76.7388 141.555 77.8354 149.414H45.6582C43.2769 141.692 41.9922 133.493 41.9922 125V125ZM49.3599 159.18H79.5088C82.668 174.672 88.7739 191.793 98.8657 203.789C76.8291 196.46 58.8652 180.132 49.3599 159.18ZM120.117 207.33C106.68 203.583 95.1304 184.65 89.5361 159.18H120.117V207.33ZM120.117 149.414H87.7349C86.5688 141.66 85.9375 133.453 85.9375 125C85.9375 116.547 86.5693 108.34 87.7349 100.586H120.117V149.414ZM120.117 90.8203H89.5361C95.1304 65.3496 106.68 46.4165 120.117 42.6704V90.8203ZM129.883 42.6704C143.32 46.4165 154.87 65.3501 160.464 90.8203H129.883V42.6704ZM129.883 100.586H162.265C163.431 108.34 164.062 116.547 164.062 125C164.062 133.453 163.431 141.66 162.265 149.414H129.883V100.586ZM129.883 207.33V159.175L160.464 159.18C154.87 184.65 143.32 203.583 129.883 207.33ZM151.135 203.789C161.229 191.79 167.334 174.666 170.492 159.175H200.641C191.135 180.132 173.171 196.46 151.135 203.789ZM208.008 125C208.008 133.493 206.723 141.692 204.342 149.414H172.165C173.261 141.555 173.828 133.359 173.828 125C173.828 116.641 173.261 108.445 172.165 100.586H204.342C206.723 108.308 208.008 116.507 208.008 125ZM170.491 90.8203C167.332 75.3281 161.226 58.207 151.134 46.2109C173.17 53.5396 191.135 69.8677 200.64 90.8203H170.491Z" fill="url(#paint2_linear)" />
    </g>
    <defs>
        <linearGradient id="paint0_linear" x1="27.9822" y1="241.641" x2="206.09" y2="229.234" gradientUnits="userSpaceOnUse">
            <stop offset="0.160824" stop-color="#9F2FFF" />
            <stop offset="1" stop-color="#0BB1D3" />
        </linearGradient>
        <linearGradient id="paint1_linear" x1="1.13329e-06" y1="171.378" x2="176.145" y2="159.079" gradientUnits="userSpaceOnUse">
            <stop offset="0.160824" stop-color="#9F2FFF" />
            <stop offset="1" stop-color="#0BB1D3" />
        </linearGradient>
        <linearGradient id="paint2_linear" x1="32.2266" y1="209.253" x2="181.313" y2="200.738" gradientUnits="userSpaceOnUse">
            <stop offset="0.160824" stop-color="#9F2FFF" />
            <stop offset="1" stop-color="#0BB1D3" />
        </linearGradient>
        <clipPath id="clip0">
            <rect width="250" height="250" fill="white" />
        </clipPath>
    </defs>
</svg>
