<svg width="23" height="26" viewBox="0 0 23 26" fill="none" xmlns="http://www.w3.org/2000/svg">
    <path d="M20.3057 0H2.69429C1.20914 0 0 1.196 0 2.678V20.254C0 21.736 1.20914 22.932 2.69429 22.932H17.5983L16.9017 20.527L18.584 22.074L20.1743 23.53L23 26V2.678C23 1.196 21.7909 0 20.3057 0ZM15.2326 16.978C15.2326 16.978 14.7594 16.419 14.3651 15.925C16.0869 15.444 16.744 14.378 16.744 14.378C16.2051 14.729 15.6926 14.976 15.2326 15.145C14.5754 15.418 13.9446 15.6 13.3269 15.704C12.2012 15.909 11.0468 15.9046 9.92286 15.691C9.26298 15.5633 8.61629 15.3762 7.99086 15.132C7.66118 15.0066 7.34061 14.8589 7.03143 14.69C6.992 14.664 6.95257 14.651 6.91314 14.625C6.88686 14.612 6.87371 14.599 6.86057 14.586C6.624 14.456 6.49257 14.365 6.49257 14.365C6.49257 14.365 7.12343 15.405 8.79257 15.899C8.39829 16.393 7.912 16.978 7.912 16.978C5.00743 16.887 3.90343 15.002 3.90343 15.002C3.90343 10.816 5.796 7.423 5.796 7.423C7.68857 6.019 9.48914 6.058 9.48914 6.058L9.62057 6.214C7.25486 6.89 6.164 7.917 6.164 7.917C6.164 7.917 6.45314 7.761 6.93943 7.54C8.34571 6.929 9.46286 6.76 9.92286 6.721C10.0017 6.708 10.0674 6.695 10.1463 6.695C12.4254 6.38988 14.7433 6.81833 16.7571 7.917C16.7571 7.917 15.7189 6.942 13.4846 6.266L13.6686 6.058C13.6686 6.058 15.4691 6.019 17.3617 7.423C17.3617 7.423 19.2543 10.816 19.2543 15.002C19.2543 15.002 18.1371 16.887 15.2326 16.978Z" fill="#AAAAAA" />
</svg>
