<svg width="98" height="98" viewBox="0 0 98 98" fill="none" xmlns="http://www.w3.org/2000/svg">
    <path d="M62.6375 60.9547L59.9375 60.2812V60.2797L53.6875 58.7172L50.5625 57.9359L47.4375 57.1547V53.4297C57.1813 51.9094 64.625 43.3781 64.625 33.375C64.625 22.175 55.5125 13.0625 44.3125 13.0625C33.1125 13.0625 24 22.175 24 33.375C24 35.4328 24.325 37.425 24.9016 39.3156C20.3672 42.5328 14.8797 44.3125 9.30781 44.3125H5.25C2.66562 44.3125 0.5625 46.4156 0.5625 49V52.125C0.5625 54.7094 2.66562 56.8125 5.25 56.8125H7.29219L11.5 68.0344V75.5625H5.25C2.66562 75.5625 0.5625 77.6656 0.5625 80.25V86.5C0.5625 89.0844 2.66562 91.1875 5.25 91.1875H7.72813L12.8734 96.3344C13.5875 97.0453 14.5328 97.4375 15.5391 97.4375C17.6203 97.4375 19.3125 95.7453 19.3125 93.6641V91.1875H24C26.5844 91.1875 28.6875 89.0844 28.6875 86.5V80.25C28.6875 77.6656 26.5844 75.5625 24 75.5625H14.625V69.3125H17.75V58.1922C20.7797 59.1922 23.6359 60.7109 26.1484 62.7203L28.6875 64.75V46.3391C31.0969 49.2453 34.3125 51.4828 38.0625 52.6922V63.4297C36.5609 62.2016 34.7078 61.5 32.6437 61.5C31.5844 61.5 30.5922 61.9125 29.8438 62.6609C29.0953 63.4109 28.6844 64.4094 28.6875 65.5906C28.6875 66.2219 28.8375 66.8563 29.1187 67.4203L30.9859 71.1578C31.5266 72.2359 31.8125 73.4438 31.8125 74.65V80.25C31.8125 89.7266 39.5234 97.4375 49 97.4375C58.4766 97.4375 66.1875 89.7266 66.1875 80.25V65.5031C66.1875 63.3484 64.7266 61.4766 62.6375 60.9547ZM9.9375 53.7109C9.72656 53.7062 9.51875 53.6875 9.30781 53.6875H5.25C4.3875 53.6875 3.6875 52.9875 3.6875 52.125V49C3.6875 48.1375 4.3875 47.4375 5.25 47.4375H9.30781C9.51719 47.4375 9.72656 47.4188 9.9375 47.4141V53.7109ZM24 78.6875C24.8625 78.6875 25.5625 79.3875 25.5625 80.25V86.5C25.5625 87.3625 24.8625 88.0625 24 88.0625H16.1875V93.6641C16.1875 94.1937 15.4562 94.4922 15.0812 94.1234L9.02188 88.0625H5.25C4.3875 88.0625 3.6875 87.3625 3.6875 86.5V80.25C3.6875 79.3875 4.3875 78.6875 5.25 78.6875H24ZM14.625 66.1875H14.1453L10.6516 56.8703C11.9906 56.9375 13.3172 57.1047 14.625 57.3687V66.1875ZM25.5625 58.4594C21.7906 56.0422 17.5031 54.5047 13.0625 53.9406V47.1859C17.5 46.6219 21.7938 45.0828 25.5625 42.6672V58.4594ZM47.15 41.1875C46.5031 39.3734 44.7844 38.0625 42.75 38.0625C40.9922 38.0625 39.475 39.0469 38.6734 40.4828C38.3609 38.7281 38.175 36.8563 38.1047 34.9375H50.5203C50.4422 37.1187 50.2 39.2313 49.8078 41.1875H47.15ZM47.4375 50.275V44.3125H57.5094C54.9922 47.3453 51.4688 49.5281 47.4375 50.275ZM59.5953 41.1875H52.9953C53.3578 39.2094 53.5719 37.0969 53.6453 34.9375H61.425C61.2188 37.1609 60.5828 39.2734 59.5953 41.1875ZM59.6031 25.5625C60.5812 27.4703 61.2188 29.5781 61.4219 31.8125H53.6547C53.5828 29.5953 53.3672 27.4953 53.0156 25.5625H59.6031ZM57.5609 22.4375H52.2906C51.7156 20.4141 50.9828 18.6531 50.1172 17.2172C53.0438 18.2734 55.6125 20.0828 57.5609 22.4375ZM44.3125 16.1875C45.9922 16.1875 47.7812 18.5734 49.0141 22.4375H39.6094C40.8438 18.5734 42.6328 16.1875 44.3125 16.1875ZM49.8109 25.5625C50.1922 27.4516 50.4484 29.5516 50.5297 31.8125H38.0953C38.1766 29.5516 38.4344 27.4516 38.8141 25.5625H49.8109ZM38.5094 17.2172C37.6453 18.6531 36.9109 20.4141 36.3359 22.4375H31.0656C33.0125 20.0828 35.5812 18.2734 38.5094 17.2172ZM29.0219 25.5625H35.6094C35.2578 27.4953 35.0422 29.5953 34.9703 31.8125H27.2031C27.4062 29.5781 28.0438 27.4703 29.0219 25.5625ZM29.0125 41.1875C28.0344 39.2703 27.4016 37.1594 27.2 34.9375H34.9813C35.0547 37.0969 35.2687 39.2094 35.6312 41.1875H29.0125ZM31.0641 44.3125H38.0625V49.3766C35.2859 48.2953 32.8969 46.5344 31.0641 44.3125ZM63.0625 80.25C63.0625 88.0047 56.7547 94.3125 49 94.3125C41.2453 94.3125 34.9375 88.0047 34.9375 80.25V74.65C34.9375 72.9609 34.5375 71.2687 33.7828 69.7594L31.9156 66.0219C31.8469 65.8906 31.8125 65.7406 31.8125 65.4656C31.8125 65.2375 31.9 65.0266 32.0562 64.8672C32.2141 64.7125 32.4219 64.625 32.7578 64.625C34.175 64.625 35.5078 65.1781 36.5094 66.1781C37.5109 67.1797 38.0625 68.5078 38.0625 69.9219V72.4375V77.125H41.1875V72.4375V69.9219V42.75C41.1875 41.8875 41.8875 41.1875 42.75 41.1875C43.6125 41.1875 44.3125 41.8875 44.3125 42.75V56.3734V77.125H47.4375V60.3766L50.5625 61.1578V77.125H53.6875V61.9391L56.8125 62.7203V77.125H59.9375V63.5L61.8781 63.9859C62.575 64.1609 63.0625 64.7844 63.0625 65.5031V80.25Z" fill="url(#paint0_linear)" />
    <path d="M96.7422 29.075C96.1062 25.25 93.1234 22.1672 89.3172 21.4078C88.8656 21.3172 88.5094 21.0266 88.289 20.6484C89.8656 19.3594 90.9156 17.4844 91.114 15.3453L92.3125 14.1469C93.6031 12.8563 94.3125 11.1422 94.3125 9.32031C94.3125 4.49219 90.3828 0.5625 85.5547 0.5625H81.1968C76.3672 0.5625 72.4375 4.49219 72.4375 9.32031C72.4375 11.1422 73.1468 12.8562 74.4359 14.1453L75.6344 15.3438C75.8344 17.4828 76.8828 19.3578 78.4594 20.6469C78.2406 21.025 77.8828 21.3156 77.4297 21.4062C73.625 22.1656 70.6422 25.2484 70.0062 29.0734L69.0297 34.9375H97.7187L96.7422 29.075ZM76.9359 9.47969C76.5109 9.90469 76.1828 10.4016 75.95 10.9391C75.7047 10.4391 75.5625 9.89375 75.5625 9.32031C75.5625 6.21406 78.089 3.6875 81.1953 3.6875H85.5531C88.6609 3.6875 91.1875 6.21406 91.1875 9.32031C91.1875 9.89219 91.0453 10.4375 90.8 10.9375C90.5687 10.4 90.2406 9.90469 89.814 9.47812L87.6047 7.26875L85.3953 9.47812L87.6047 11.6875C87.8969 11.9812 88.0625 12.3828 88.0625 12.7937V14.625C88.0625 17.2094 85.9594 19.3125 83.375 19.3125C80.7906 19.3125 78.6875 17.2094 78.6875 14.625V12.7937C78.6875 12.3828 78.8531 11.9797 79.1453 11.6891L80.25 10.5844L82.2703 12.6047L84.4797 10.3953L80.25 6.16563L76.9359 9.47969ZM85.9578 22.7781L84.5047 24.9578C84.0015 25.7141 82.75 25.7141 82.2469 24.9578L80.7937 22.7781C80.9609 22.5672 81.1078 22.3406 81.2375 22.1016C81.9203 22.2984 82.6281 22.4375 83.375 22.4375C84.1219 22.4375 84.8297 22.2984 85.514 22.1031C85.6422 22.3406 85.789 22.5672 85.9578 22.7781ZM72.7203 31.8125L73.0906 29.5875C73.5156 27.0344 75.5062 24.9797 78.0437 24.4719C78.0797 24.4641 78.1109 24.45 78.1453 24.4422L79.6453 26.6922C80.4797 27.9406 81.8734 28.6875 83.375 28.6875C84.8765 28.6875 86.2703 27.9406 87.1047 26.6922L88.6047 24.4422C88.639 24.45 88.6703 24.4641 88.7062 24.4719C91.2453 24.9797 93.2344 27.0359 93.6609 29.5875L94.0297 31.8125H72.7203Z" fill="url(#paint1_linear)" />
    <path d="M96.3031 76.4156L90.3344 70.4469L88.3453 71.3781L87.5953 69.3125H79.1547L78.4062 71.3766L76.4172 70.4453L70.4484 76.4141L71.3797 78.4031L69.3125 79.1547V87.5953L71.3766 88.3438L70.4453 90.3328L76.4141 96.3016L78.4031 95.3703L79.1547 97.4375H87.5953L88.3438 95.3734L90.3328 96.3047L96.3016 90.3359L95.3703 88.3469L97.4375 87.5953V79.1547L95.3734 78.4062L96.3031 76.4156ZM94.3125 85.4047L93.0266 85.8734L92.3359 86.1891L91.6687 87.8L92.5453 89.6719L89.6734 92.5438L87.8016 91.6672L86.1141 92.3641L85.4047 94.3125H81.3453L80.8766 93.0266L80.5609 92.3359L78.95 91.6687L77.0781 92.5453L74.2063 89.6734L75.0828 87.8016L74.3859 86.1141L72.4375 85.4047V81.3453L73.7234 80.8766L74.4141 80.5609L75.0813 78.95L74.2047 77.0781L77.0766 74.2063L78.9484 75.0828L80.6359 74.3859L81.3453 72.4375H85.4047L85.8734 73.7234L86.1891 74.4141L87.8 75.0813L89.6719 74.2047L92.5438 77.0766L91.6672 78.9484L92.3641 80.6359L94.3125 81.3453V85.4047Z" fill="url(#paint2_linear)" />
    <path d="M83.375 75.5625C79.0672 75.5625 75.5625 79.0672 75.5625 83.375C75.5625 87.6828 79.0672 91.1875 83.375 91.1875C87.6828 91.1875 91.1875 87.6828 91.1875 83.375C91.1875 79.0672 87.6828 75.5625 83.375 75.5625ZM83.375 88.0625C80.7906 88.0625 78.6875 85.9594 78.6875 83.375C78.6875 80.7906 80.7906 78.6875 83.375 78.6875C85.9594 78.6875 88.0625 80.7906 88.0625 83.375C88.0625 85.9594 85.9594 88.0625 83.375 88.0625Z" fill="url(#paint3_linear)" />
    <path d="M6.8125 6.8125H16.1875V9.9375H6.8125V6.8125Z" fill="url(#paint4_linear)" />
    <path d="M6.8125 13.0625H16.1875V16.1875H6.8125V13.0625Z" fill="url(#paint5_linear)" />
    <path d="M6.8125 19.3125H16.1875V22.4375H6.8125V19.3125Z" fill="url(#paint6_linear)" />
    <path d="M19.3125 81.8125H22.4375V84.9375H19.3125V81.8125Z" fill="url(#paint7_linear)" />
    <path d="M6.8125 81.8125H9.9375V84.9375H6.8125V81.8125Z" fill="url(#paint8_linear)" />
    <path d="M13.0625 81.8125H16.1875V84.9375H13.0625V81.8125Z" fill="url(#paint9_linear)" />
    <path d="M9.9375 41.1875H13.0625V28.6875H22.4375V0.5625H0.5625V28.6875H9.9375V41.1875ZM3.6875 25.5625V3.6875H19.3125V25.5625H3.6875Z" fill="url(#paint10_linear)" />
    <path d="M81.8125 38.0625H84.9375V47.4375H81.8125V38.0625Z" fill="url(#paint11_linear)" />
    <path d="M81.8125 50.5625H84.9375V53.6875H81.8125V50.5625Z" fill="url(#paint12_linear)" />
    <path d="M81.8125 56.8125H84.9375V66.1875H81.8125V56.8125Z" fill="url(#paint13_linear)" />
    <defs>
        <linearGradient id="paint0_linear" x1="0.5625" y1="93.5631" x2="53.3597" y2="91.2177" gradientUnits="userSpaceOnUse">
            <stop offset="0.160824" stop-color="#9F2FFF" />
            <stop offset="1" stop-color="#0BB1D3" />
        </linearGradient>
        <linearGradient id="paint1_linear" x1="69.0297" y1="33.3591" x2="92.104" y2="32.2592" gradientUnits="userSpaceOnUse">
            <stop offset="0.160824" stop-color="#9F2FFF" />
            <stop offset="1" stop-color="#0BB1D3" />
        </linearGradient>
        <linearGradient id="paint2_linear" x1="69.3125" y1="96.146" x2="91.9108" y2="94.8553" gradientUnits="userSpaceOnUse">
            <stop offset="0.160824" stop-color="#9F2FFF" />
            <stop offset="1" stop-color="#0BB1D3" />
        </linearGradient>
        <linearGradient id="paint3_linear" x1="75.5625" y1="90.47" x2="88.1171" y2="89.753" gradientUnits="userSpaceOnUse">
            <stop offset="0.160824" stop-color="#9F2FFF" />
            <stop offset="1" stop-color="#0BB1D3" />
        </linearGradient>
        <linearGradient id="paint4_linear" x1="6.8125" y1="9.79401" x2="14.1543" y2="8.53602" gradientUnits="userSpaceOnUse">
            <stop offset="0.160824" stop-color="#9F2FFF" />
            <stop offset="1" stop-color="#0BB1D3" />
        </linearGradient>
        <linearGradient id="paint5_linear" x1="6.8125" y1="16.044" x2="14.1543" y2="14.786" gradientUnits="userSpaceOnUse">
            <stop offset="0.160824" stop-color="#9F2FFF" />
            <stop offset="1" stop-color="#0BB1D3" />
        </linearGradient>
        <linearGradient id="paint6_linear" x1="6.8125" y1="22.294" x2="14.1543" y2="21.036" gradientUnits="userSpaceOnUse">
            <stop offset="0.160824" stop-color="#9F2FFF" />
            <stop offset="1" stop-color="#0BB1D3" />
        </linearGradient>
        <linearGradient id="paint7_linear" x1="19.3125" y1="84.794" x2="21.8234" y2="84.6506" gradientUnits="userSpaceOnUse">
            <stop offset="0.160824" stop-color="#9F2FFF" />
            <stop offset="1" stop-color="#0BB1D3" />
        </linearGradient>
        <linearGradient id="paint8_linear" x1="6.8125" y1="84.794" x2="9.32342" y2="84.6506" gradientUnits="userSpaceOnUse">
            <stop offset="0.160824" stop-color="#9F2FFF" />
            <stop offset="1" stop-color="#0BB1D3" />
        </linearGradient>
        <linearGradient id="paint9_linear" x1="13.0625" y1="84.794" x2="15.5734" y2="84.6506" gradientUnits="userSpaceOnUse">
            <stop offset="0.160824" stop-color="#9F2FFF" />
            <stop offset="1" stop-color="#0BB1D3" />
        </linearGradient>
        <linearGradient id="paint10_linear" x1="0.5625" y1="39.3221" x2="18.1796" y2="38.7803" gradientUnits="userSpaceOnUse">
            <stop offset="0.160824" stop-color="#9F2FFF" />
            <stop offset="1" stop-color="#0BB1D3" />
        </linearGradient>
        <linearGradient id="paint11_linear" x1="81.8125" y1="47.007" x2="84.3307" y2="46.9591" gradientUnits="userSpaceOnUse">
            <stop offset="0.160824" stop-color="#9F2FFF" />
            <stop offset="1" stop-color="#0BB1D3" />
        </linearGradient>
        <linearGradient id="paint12_linear" x1="81.8125" y1="53.544" x2="84.3234" y2="53.4006" gradientUnits="userSpaceOnUse">
            <stop offset="0.160824" stop-color="#9F2FFF" />
            <stop offset="1" stop-color="#0BB1D3" />
        </linearGradient>
        <linearGradient id="paint13_linear" x1="81.8125" y1="65.757" x2="84.3307" y2="65.7091" gradientUnits="userSpaceOnUse">
            <stop offset="0.160824" stop-color="#9F2FFF" />
            <stop offset="1" stop-color="#0BB1D3" />
        </linearGradient>
    </defs>
</svg>
