<svg width="400" height="700" viewBox="0 0 400 700" fill="none" xmlns="http://www.w3.org/2000/svg">
    <mask id="mask0" mask-type="alpha" maskUnits="userSpaceOnUse" x="0" y="0" width="401" height="700">
        <path fill-rule="evenodd" clip-rule="evenodd" d="M400 8.32319C376.973 2.87383 353.036 -2.05288e-06 328.469 -3.12674e-06C147.061 -1.10563e-05 0.000206773 156.7 0.000198324 350C0.000189875 543.3 147.061 700 328.469 700C353.036 700 376.973 697.126 400 691.677L400 8.32319Z" fill="#C4C4C4" />
    </mask>
    <g mask="url(#mask0)">
        <path fill-rule="evenodd" clip-rule="evenodd" d="M330.089 696.361C298.041 696.361 267.386 691.972 238.822 683.195C180.3 665.64 128.744 631.992 88.3357 585.911C59.7712 553.726 36.7803 514.959 21.4529 472.535C7.51902 434.499 -0.144548 392.806 -0.144546 349.65C-0.144546 343.798 -0.144607 337.215 0.55211 331.363C1.24877 322.586 1.94548 313.077 2.6422 304.3C11.0026 237.737 37.4769 176.295 77.1886 127.287C91.8192 109 108.54 92.177 126.654 76.8164C139.891 65.8445 154.522 55.6041 169.849 46.8266C173.333 44.6322 177.513 42.4379 180.996 40.2435C185.176 38.0491 188.66 35.8549 192.84 34.3919C205.381 28.5403 218.618 23.42 231.855 19.0313C241.609 16.1055 251.362 13.1796 261.116 10.9852C268.083 9.5223 275.05 8.05938 282.714 7.32793C298.041 5.13355 313.368 3.67064 329.392 3.67064C338.449 3.67064 347.506 3.67073 356.563 5.13365C362.137 5.8651 367.711 5.86501 373.284 7.32793C406.029 11.7167 436.683 21.2255 465.248 35.1232C479.182 41.7063 493.116 49.7525 505.656 58.53C527.254 73.1591 547.458 89.9826 565.572 109.732C623.398 171.906 658.929 257.486 658.929 351.113C658.929 354.77 658.929 358.428 658.929 362.085C658.929 365.742 658.929 370.131 658.232 373.788C656.839 393.538 654.052 413.287 649.872 431.573C647.085 442.545 644.299 453.517 640.815 463.758C638.725 471.072 635.938 477.655 633.151 484.97C631.061 490.09 628.971 495.21 626.881 500.33C626.184 501.062 626.184 501.793 625.488 503.256C610.16 536.903 589.26 567.624 564.179 593.957C560.695 597.614 557.212 601.271 553.728 604.929C550.941 607.123 548.851 610.049 546.065 612.243C541.884 616.632 537.008 620.289 532.827 623.946C516.107 637.844 497.993 649.548 479.182 659.788C456.888 671.491 433.2 681 408.816 687.583C383.735 692.704 357.26 696.361 330.089 696.361Z" fill="url(#paint0_linear)" />
        <g opacity="0.18">
            <path opacity="0.4" fill-rule="evenodd" clip-rule="evenodd" d="M258.19 683.003C273.063 686.938 286.711 689.863 301.985 689.553C315.072 689.52 328.56 685.242 341.419 681.277C348.942 679.155 356.168 676.373 364.32 673.938C370.916 671.469 378.107 670.321 384.107 666.529C392.329 660.824 401.478 655.466 406.953 647.08C413.057 638.382 418.532 629.996 423.411 620.288C427.661 610.893 428.166 601.741 424.332 591.51C422.582 585.907 418.941 581.244 417.191 575.641C414.547 568.054 412.533 560.154 410.519 552.255C406.492 536.456 399.053 519.925 382.955 514.981C369.639 511.082 356.518 512.75 342.801 513.095C328.156 513.093 315.436 510.516 302.487 504.007C293.248 498.89 283.047 495.06 273.476 490.917C269.469 488.864 265.427 488.446 261.122 485.731C257.448 482.702 254.036 481.971 249.399 480.23C245.392 478.177 242.015 475.81 237.675 474.73C230.554 472.607 222.768 472.431 216.207 473.265C208.719 473.751 202.123 476.221 194.6 478.342C188.005 480.812 182.599 485.927 177.194 491.041C167.643 500.644 164.847 514.981 162.085 527.682C158.624 543.967 161.392 560.392 164.79 576.505C168.222 590.981 175.032 607.825 183.8 620.458C192.866 633.753 201.302 647.361 212.922 657.767C221.794 665.494 230.141 668.627 240.639 673.118C245.574 675.52 250.176 678.896 255.74 680.985C262.862 683.109 270.613 684.919 258.19 683.003Z" fill="#787E7A" />
            <path opacity="0.4" fill-rule="evenodd" clip-rule="evenodd" d="M139.087 594.198C135.046 593.78 129.115 594.301 125.405 592.908C122.921 592.525 120.768 591.167 118.616 589.81C111.827 586.712 105.999 582.326 101.134 576.653C98.0893 573.312 96.3038 569.345 96.0755 565.412C94.9198 561.132 94.4632 553.267 95.7921 549.37C98.4499 541.576 108.125 540.812 114.686 539.978C120.949 538.482 127.51 537.648 133.04 541.373C137.047 543.426 141.019 547.116 143.435 550.77C144.957 552.441 146.148 555.085 147.338 557.73C148.231 559.714 149.753 561.385 150.348 562.707C152.431 567.336 152.258 575.513 149.074 578.714C147.483 580.315 145.261 582.228 143.967 584.49C142.375 586.09 141.413 587.378 139.821 588.978C137.267 591.866 134.416 594.093 139.087 594.198Z" fill="#787E7A" />
            <path opacity="0.4" fill-rule="evenodd" clip-rule="evenodd" d="M147.068 526.307C150.812 526.064 154.888 524.847 158.037 523.282C158.072 521.646 159.664 520.046 160.031 517.436C160.065 515.8 159.172 513.817 158.28 511.833C156.792 508.527 155.602 505.882 151.525 507.099C148.079 508.003 147.047 512.562 146.348 516.146C145.981 518.756 144.32 523.627 147.732 524.359L147.068 526.307Z" fill="#787E7A" />
            <path opacity="0.4" fill-rule="evenodd" clip-rule="evenodd" d="M181.006 449.168C185.311 451.883 189.913 455.259 194.848 457.661C200.709 460.411 206.904 462.187 213.727 463.65C221.479 465.46 230.455 468.28 238.047 462.888C245.009 457.808 250.747 451.72 253.107 443.264C256.132 432.86 251.073 421.619 250.983 411.144C250.859 402.306 255.703 394.233 261.143 387.483C268.84 377.184 265.372 364.343 262.501 352.824C260.784 345.585 258.141 337.999 256.425 330.76C253.518 320.877 250.612 310.994 247.705 301.111C241.228 283.293 237.27 264.222 228.273 247.657C218.681 229.769 204.944 216.369 188.321 206.832C174.479 198.338 154.008 193.95 138.034 197.845C121.431 202.053 106.808 215.796 96.2253 229.958C83.0546 248.642 72.6661 268.372 62.8727 289.423C57.3288 301.08 53.3422 312.771 48.7257 324.776C44.1439 335.145 40.8218 344.889 37.7972 355.293C31.6786 379.373 29.8646 406.167 38.7226 429.275C41.9613 438.184 47.0895 446.154 54.107 453.184C59.8995 459.205 66.0589 462.617 74.1077 465.089C93.285 471.738 113.563 470.558 133.246 468.056C142.623 466.631 152.631 464.892 160.223 459.5C162.742 458.247 163.739 455.325 166.258 454.072C168.777 452.82 170.667 451.881 173.186 450.628C174.445 450.002 175.705 449.376 177.262 449.411C178.819 449.446 181.601 450.49 181.006 449.168Z" fill="#787E7A" />
            <path opacity="0.4" fill-rule="evenodd" clip-rule="evenodd" d="M267.559 476.06C276.466 482.151 284.411 489.53 294.944 492.385C296.799 493.081 299.283 493.464 300.875 491.864C302.467 490.263 302.536 486.992 302.273 484.695C301.817 476.831 299.505 468.27 294.972 461.623C290.737 455.637 283.387 449.581 276.231 449.092C267.221 447.908 258.265 458.833 263.061 467.777C263.656 469.099 264.881 470.109 265.476 471.431C266.071 472.754 266.369 473.415 266.964 474.737C267.559 476.06 267.559 476.06 268.784 477.069C270.639 477.765 272.493 478.462 267.559 476.06Z" fill="#787E7A" />
            <path opacity="0.4" fill-rule="evenodd" clip-rule="evenodd" d="M171.963 189.461C166.33 190.643 162.551 192.522 157.284 191.094C152.647 189.353 147.381 187.926 143.041 186.846C134.363 184.687 124.687 185.451 116.237 187.225C108.417 188.685 102.382 194.113 93.9659 194.25C91.7789 194.528 88.6646 194.458 86.8099 193.762C85.5849 192.753 84.4293 188.472 84.4639 186.837C84.4986 185.201 85.4952 182.278 86.1596 180.33C87.1563 177.407 88.1529 174.484 89.4818 170.587C95.4272 154.685 109.124 140.594 123.907 134.054C132.724 129.671 140.877 127.236 150.254 125.811C153.998 125.568 157.743 125.325 161.784 125.743C166.456 125.848 169.833 128.215 173.84 130.269C184.899 137.717 190.152 154.526 186.131 167.853C184.469 172.725 181.286 175.926 178.697 180.449C177.071 183.685 175.147 186.26 171.665 188.799C171.036 189.113 171.036 189.113 171.963 189.461Z" fill="#787E7A" />
            <path opacity="0.4" fill-rule="evenodd" clip-rule="evenodd" d="M59.8606 245.191C64.636 240.389 70.6363 236.597 70.8095 228.419C70.8442 226.784 70.5812 224.487 69.9861 223.165C69.3909 221.842 68.166 220.833 66.3113 220.137C58.9269 215.716 50.0059 225.006 46.753 231.478C45.4241 235.375 45.6522 239.307 45.8805 243.24C45.8459 244.875 45.846 244.875 47.0709 245.885C48.2959 246.894 48.5935 247.555 50.1507 247.59C51.0781 247.939 52.9674 246.999 53.5972 246.686C54.8568 246.06 55.7841 246.408 56.4139 246.095C58.6009 245.817 60.1927 244.216 61.7845 242.616L59.8606 245.191Z" fill="#787E7A" />
            <path opacity="0.4" fill-rule="evenodd" clip-rule="evenodd" d="M324.353 173.585C328.727 173.029 333.731 172.16 338.402 172.265C343.703 172.057 348.375 172.162 353.676 171.954C366.466 171.261 379.622 167.957 392.447 165.627C405.901 162.985 419.389 158.707 431.951 154.081C438.546 151.611 445.439 149.803 451.44 146.01C455.848 143.819 461.516 141.001 465.032 136.826C466.956 134.251 470.175 129.415 470.244 126.144C470.348 121.237 465.116 118.174 461.739 115.807C449.787 106.375 435.911 99.5169 422 94.2949C408.089 89.0728 394.809 83.5378 380.234 80.2644C373.41 78.8017 367.216 77.0259 360.06 76.5376C354.461 76.0843 348.53 76.6053 343.228 76.8132C337.927 77.0212 332.626 77.2293 327.324 77.4373C321.096 77.2971 314.535 78.1312 307.974 78.9653C295.779 80.9816 283.585 82.9978 274.664 92.2876C266.705 100.29 263.348 111.669 266.22 123.187C267.341 129.103 269.057 136.342 271.438 141.632C274.448 146.608 278.386 151.933 282.656 156.284C286.628 159.973 290.601 163.662 294.905 166.377C297.058 167.735 299.84 168.779 302.622 169.823C307.259 171.564 311.598 172.643 316.567 173.41C319.052 173.793 320.609 173.828 322.761 175.186C326.208 174.282 329.952 174.038 324.353 173.585Z" fill="#787E7A" />
            <path opacity="0.4" fill-rule="evenodd" clip-rule="evenodd" d="M265.378 280.581C268.825 279.677 272.603 277.798 275.752 276.233C275.157 274.91 277.081 272.336 276.486 271.013C275.926 268.055 273.773 266.698 271.621 265.34C266.686 262.938 260.423 264.433 256.61 267.947C252.499 270.8 254.249 276.403 256.665 280.057C257.26 281.38 258.782 283.051 259.71 283.399C262.79 285.104 265.309 283.852 267.828 282.6L265.378 280.581Z" fill="#787E7A" />
            <path opacity="0.4" fill-rule="evenodd" clip-rule="evenodd" d="M254.877 99.6978C254.177 103.282 252.849 107.179 250.592 110.728C249.333 111.354 248.073 111.98 246.813 112.607C243.962 114.833 241.741 116.747 238.294 117.651C230.141 120.086 222.127 115.978 217.926 108.357C214.916 103.38 215.421 94.228 218.64 89.3916C221.858 84.5551 226.301 80.7277 231.339 78.223C235.118 76.3445 240.454 74.501 244.793 75.5805C248.205 76.3118 249.693 79.618 250.884 82.2629C252.371 85.569 253.23 89.1884 253.79 92.1463C254.351 95.1043 254.281 98.3754 254.877 99.6978Z" fill="#787E7A" />
        </g>
    </g>
    <defs>
        <linearGradient id="paint0_linear" x1="533.094" y1="77.7856" x2="100.369" y2="601.318" gradientUnits="userSpaceOnUse">
            <stop stop-color="#404250" />
            <stop offset="1" stop-color="#090B19" />
        </linearGradient>
    </defs>
</svg>
