<svg width="110" height="110" viewBox="0 0 110 110" fill="none" xmlns="http://www.w3.org/2000/svg">
    <g clip-path="url(#clip0)">
        <path d="M57.7202 52.2824C56.8802 51.4423 55.5202 51.4423 54.6802 52.2824C53.8423 53.1203 53.8423 54.4802 54.6802 55.3203C55.5202 56.1581 56.8802 56.1581 57.7202 55.3203C58.5581 54.4802 58.5581 53.1203 57.7202 52.2824Z" fill="#383B51" />
        <path d="M85.0635 24.937C80.8654 20.7392 74.0695 20.739 69.8713 24.937C65.6842 29.1241 65.684 35.9389 69.8719 40.1295C74.0605 44.3155 80.8753 44.3172 85.0635 40.129C89.2611 35.9314 89.262 29.1353 85.0635 24.937ZM82.0252 37.0905C79.513 39.6029 75.4237 39.6029 72.9102 37.0909C70.3976 34.5768 70.3974 30.4875 72.9098 27.9753C75.4284 25.4567 79.5061 25.4563 82.0252 27.9753C84.5438 30.4937 84.5442 34.5717 82.0252 37.0905Z" fill="#383B51" />
        <path d="M109.37 0.629297C108.948 0.20756 108.373 -0.0210336 107.774 0.00152496C107.288 0.0189273 95.7222 0.483848 81.9733 5.34339C70.9562 9.23334 61.7731 14.8027 54.6792 21.8969C53.0896 23.4865 51.5427 25.1721 50.0627 26.9233C43.0485 22.7945 37.4277 24.0891 33.8744 25.9907C25.693 30.3692 20.6289 42.2578 20.6289 50.7613C20.6296 51.6301 21.1531 52.4136 21.9558 52.746C22.2215 52.8562 22.5008 52.9097 22.7776 52.9097C23.3368 52.9097 23.8861 52.6912 24.2971 52.2804C28.6118 47.9657 33.9337 48.2356 35.6722 48.4642L36.4246 49.2165C34.9439 52.74 33.7511 56.2436 32.8763 59.6513C32.5604 60.8845 32.667 62.1894 33.1364 63.3831C31.0679 64.3364 29.0723 65.7361 27.3346 67.4737C21.8043 73.0042 20.6813 86.4822 20.6362 87.0533C20.5868 87.68 20.8141 88.297 21.2586 88.7415C21.6632 89.1458 22.2104 89.3708 22.7776 89.3708C22.8338 89.3708 22.8903 89.3686 22.9469 89.3641C23.5179 89.3192 36.9963 88.1962 42.5266 82.6659C44.2636 80.9289 45.6631 78.9335 46.6164 76.8654C47.8801 77.3623 49.1807 77.4235 50.3503 77.1238C53.7565 76.2492 57.2597 75.0568 60.7836 73.5759L61.5359 74.3283C61.7643 76.067 62.0342 81.3889 57.7197 85.7032C57.1054 86.3176 56.9215 87.2417 57.2541 88.0443C57.5865 88.8472 58.3698 89.3706 59.2388 89.3706C67.7423 89.3706 79.6307 84.3065 84.0092 76.125C85.9108 72.5722 87.2054 66.9514 83.0766 59.937C84.8269 58.4576 86.5128 56.9107 88.103 55.3205C95.1972 48.2263 100.766 39.0433 104.656 28.027C109.516 14.2774 109.981 2.71113 109.998 2.22558C110.02 1.62939 109.792 1.05125 109.37 0.629297ZM25.4324 46.1402C26.767 39.6814 30.6434 32.5939 35.9028 29.779C39.4174 27.8983 43.259 28.0826 47.3436 30.3185C43.8638 34.8951 40.8386 39.8257 38.317 45.0325C38.285 45.0127 37.8982 44.5265 37.1798 44.3645C36.8844 44.2977 31.1998 43.075 25.4324 46.1402ZM39.4883 79.6274C36.5342 82.5815 29.6044 84.1395 25.2244 84.7757C25.8608 80.3955 27.419 73.4659 30.3729 70.512C32.0272 68.8577 33.9453 67.6035 35.8733 66.8971L43.1032 74.127C42.3968 76.055 41.1428 77.9731 39.4883 79.6274ZM49.283 72.9615C48.6612 73.1207 47.9411 72.8869 47.4057 72.3524C44.6263 69.573 43.5389 68.4856 43.1978 68.1447C42.5721 67.5191 41.038 65.9849 37.6492 62.5959C37.1134 62.059 36.8797 61.3391 37.0384 60.7184C37.7266 58.0384 38.6265 55.2889 39.721 52.5129L57.4874 70.2794C54.711 71.374 51.9619 72.2738 49.283 72.9615ZM80.2213 74.0976C77.4064 79.3567 70.3192 83.2333 63.8605 84.5677C65.9198 80.6926 66.3738 75.7596 65.6214 72.7683C65.4467 72.0735 64.9934 71.7242 64.9681 71.6832C70.1744 69.1615 75.1048 66.1363 79.6818 62.6565C81.9177 66.7415 82.1018 70.5836 80.2213 74.0976ZM85.0652 52.2822C83.1292 54.2179 81.0446 56.0881 78.8691 57.8406C73.6394 62.0515 67.8833 65.6183 61.7422 68.4577L41.5426 48.2586C44.382 42.1171 47.9488 36.361 52.1593 31.1319C53.9133 28.9549 55.7833 26.87 57.7184 24.9352C64.0831 18.5702 72.2974 13.5046 82.1398 9.85832L100.142 27.8605C96.4961 37.7027 91.4305 45.917 85.0652 52.2822ZM101.688 23.3292L86.6711 8.31253C94.8526 5.77136 101.97 4.81982 105.523 4.47779C105.181 8.03108 104.229 15.1486 101.688 23.3292Z" fill="#383B51" />
        <path d="M51.6422 88.7408C50.8028 87.9019 49.4424 87.9023 48.6036 88.7413L42.5279 94.8192C41.6891 95.6583 41.6893 97.0187 42.5283 97.8575C43.3677 98.6962 44.7281 98.6962 45.5668 97.857L51.6426 91.7791C52.4813 90.94 52.4811 89.5796 51.6422 88.7408Z" fill="#383B51" />
        <path d="M21.2597 58.358C20.4209 57.5188 19.0608 57.5188 18.2214 58.3575L12.1435 64.4333C11.3043 65.272 11.3041 66.6324 12.1428 67.4716C12.9814 68.3104 14.3415 68.3112 15.1811 67.472L21.259 61.3963C22.0982 60.5575 22.0984 59.1971 21.2597 58.358Z" fill="#383B51" />
        <path d="M36.4509 91.7811C35.6124 90.9421 34.2518 90.9421 33.4126 91.7809L18.8591 106.332C18.02 107.171 18.02 108.532 18.8589 109.371C19.6975 110.21 21.0581 110.21 21.8972 109.371L36.4507 94.8194C37.2899 93.9805 37.2899 92.6201 36.4509 91.7811Z" fill="#383B51" />
        <path d="M19.2635 91.7811C18.4247 90.9421 17.0641 90.9421 16.2251 91.7809L1.67165 106.332C0.832469 107.171 0.832469 108.532 1.67143 109.371C2.50997 110.21 3.87057 110.21 4.70975 109.371L19.2632 94.8194C20.1024 93.9805 20.1024 92.6201 19.2635 91.7811Z" fill="#383B51" />
        <path d="M18.2191 73.549C17.3803 72.7102 16.0197 72.7102 15.1808 73.5492L0.62944 88.1027C-0.209523 88.9418 -0.209523 90.302 0.629654 91.1412C1.46862 91.9801 2.82901 91.9801 3.66797 91.141L18.2193 76.5875C19.0583 75.7483 19.0583 74.3881 18.2191 73.549Z" fill="#383B51" />
        <path d="M66.8341 43.1663C65.9949 42.3274 64.6349 42.3274 63.7955 43.1663L60.7576 46.2042C59.9187 47.0432 59.9187 48.4036 60.7576 49.2427C61.5968 50.0817 62.957 50.0817 63.7962 49.2427L66.8341 46.2049C67.673 45.3659 67.673 44.0055 66.8341 43.1663Z" fill="#383B51" />
    </g>
    <defs>
        <clipPath id="clip0">
            <rect width="110" height="110" fill="white" />
        </clipPath>
    </defs>
</svg>
